<svg xmlns="http://www.w3.org/2000/svg" width="50" height="50" viewBox="0 0 54 54">
                                            <path d="M28.2584 2.6947L28.3162 2.63855C15.4756 2.51469 2.4807 12.8854 2.70201 28.1272C2.9167 42.8719 14.7944 53.269 28.6556 52.6315C30.4782 52.5507 32.2852 52.2566 34.0395 51.7554C36.222 53.4688 39.8413 54.61 42.2095 53.6497C43.1757 53.2492 44.0378 52.6059 44.7586 51.7835C47.4275 49.3458 47.8329 45.184 47.2029 41.5606C51.1781 35.9182 52.3019 29.4278 51.2796 23.3865C49.4002 12.276 40.2632 2.68809 28.2584 2.6947ZM40.705 8.16947C40.6578 8.26581 40.6373 8.37301 40.6455 8.47995C40.8503 10.4973 38.672 11.9126 36.9115 10.9217C35.6109 10.1884 34.8966 8.29003 33.1543 7.6542C29.9627 6.48575 27.6019 10.2041 25.0164 9.93576C24.0305 9.83089 23.0594 9.05964 22.5416 7.97046C22.1535 7.15461 21.981 6.14719 21.9834 4.86231C28.6473 2.88297 35.1989 4.09271 40.705 8.16947ZM6.08348 20.953C10.4245 19.6475 16.2783 22.3816 12.0364 24.5855C11.0496 25.0826 10.0356 25.5409 9.47239 26.4798C8.75811 27.6738 9.12887 29.351 10.2833 30.1429C10.7259 30.4443 11.3047 30.6598 11.3683 30.9042C11.517 31.4723 8.65159 33.3683 5.49306 32.4335C5.16193 30.9105 4.97722 29.3592 4.94146 27.801C4.88014 25.4918 5.16885 23.1865 5.79777 20.9637C5.89249 20.9831 5.99048 20.9795 6.08348 20.953ZM17.886 42.7134C19.3526 40.0131 22.4426 39.2551 22.8439 39.734C23.0982 40.0387 22.6895 40.8818 22.5672 41.5887C22.2287 43.5053 24.0941 45.3938 26.0189 45.0816C28.2237 44.7216 29.26 42.1428 30.9487 41.9264C31.748 41.8273 32.6778 42.312 33.4425 43.2344C34.5556 44.573 35.2666 47.3533 35.0882 49.4061C32.8676 50.2147 30.5294 50.6535 28.1667 50.705C24.4946 50.7878 20.8595 49.9561 17.5888 48.2847C17.1214 46.639 17.1181 44.1279 17.886 42.7134ZM33.6588 31.7291C33.62 30.7316 33.4994 29.7605 33.35 28.4633C33.3389 28.3728 33.3078 28.2859 33.2589 28.2089C33.2101 28.1319 33.1447 28.0668 33.0676 28.0182C32.2559 27.2502 30.8397 25.7251 28.4557 23.991C28.3833 23.9382 28.3004 23.9017 28.2125 23.8889C28.1247 23.8665 28.0341 23.9492 27.7782 23.9097C27.8598 23.9097 27.7782 23.9492 27.7078 24.0046C27.6374 24.06 27.5799 24.13 27.5391 24.2098C25.9091 27.4063 24.8843 30.441 24.2394 33.9612C23.6985 33.6887 23.6655 33.6721 23.5615 33.6143C24.2072 29.1462 24.3228 24.9175 24.3839 20.9621C24.3854 20.8659 24.3645 20.7706 24.3228 20.6839C24.2811 20.5972 24.2197 20.5214 24.1436 20.4625C22.0891 18.8721 20.213 17.5393 18.4137 16.3915C18.0768 15.3511 17.8414 15.1876 17.9859 14.9663C18.0982 14.7929 18.1651 14.8986 19.2634 14.7805C21.5846 16.3271 23.7737 17.6789 25.7704 18.8003C25.9388 18.8944 26.1419 18.906 26.3203 18.8283C29.8463 17.3048 33.8702 16.0298 37.98 15.1314C38.0304 15.2099 38.1138 15.3461 38.1617 15.4287C35.2534 16.849 32.2839 18.9522 29.5342 21.5583C29.4745 21.6147 29.4266 21.6824 29.3934 21.7575C29.3602 21.8326 29.3423 21.9135 29.3406 21.9956C29.339 22.0777 29.3538 22.1593 29.384 22.2356C29.4143 22.312 29.4594 22.3815 29.5168 22.4402C31.1559 24.1247 32.6382 25.5137 33.9181 26.5657C34.473 27.0182 35.0378 26.2354 38.1245 25.621C38.2542 25.7738 38.3904 25.9538 38.525 26.1454C35.7752 27.896 34.8322 28.6309 33.909 31.8348C33.8257 31.7994 33.7423 31.7641 33.6588 31.7291ZM37.1683 28.5888C42.6166 34.4748 49.174 45.6019 43.5373 51.2665C47.4242 45.2625 41.9222 36.1222 35.8083 30.2948C36.1296 29.6324 36.5942 29.0497 37.1683 28.5888ZM43.4762 45.767C43.6265 47.4037 43.4102 48.6076 43.0262 49.5737C41.3953 51.947 38.3987 52.1798 36.4119 50.9321C38.7835 49.9363 40.9783 48.4796 42.591 46.5424C42.8941 46.2947 43.1839 46.0312 43.4762 45.767ZM39.0039 27.3105C39.2401 27.1561 39.4639 27.0157 39.6546 26.9059C39.6778 26.8968 39.7025 26.9001 39.724 26.8877C39.8646 26.8028 39.9657 26.6655 40.0052 26.506C40.0447 26.3466 40.0193 26.1779 39.9346 26.0372C39.762 25.7515 39.3045 25.0298 38.7868 24.512C38.7167 24.4413 38.6304 24.3888 38.5355 24.3588C38.4405 24.3289 38.3397 24.3225 38.2418 24.3403C36.8528 24.5839 35.6225 24.9844 34.44 25.389C33.3739 24.493 32.1683 23.365 30.8463 22.0273C33.5606 19.5335 36.4689 17.5451 39.288 16.2594C39.4246 16.1956 39.533 16.0838 39.5924 15.9451C39.6518 15.8065 39.6581 15.6509 39.6101 15.508C39.5985 15.4031 39.5594 15.3031 39.4969 15.2181C39.0948 14.6979 38.776 13.6996 38.0849 13.8424C33.8809 14.7367 29.748 16.0232 26.1114 17.5699C20.303 14.2768 19.938 13.4527 19.3394 13.5237C18.2039 13.6682 17.4888 13.4667 16.9504 14.2859C16.8195 14.4857 16.7378 14.7138 16.7122 14.9514C16.6865 15.1889 16.7175 15.4292 16.8026 15.6525C17.9496 18.4245 16.0867 15.8259 23.1403 21.2528C23.0743 25.3444 22.9479 29.3972 22.2774 33.8282C22.1601 34.6069 23.4789 34.8175 24.2155 35.3749C24.2943 35.4352 24.3866 35.4754 24.4845 35.4921C24.5824 35.5088 24.6828 35.5015 24.7772 35.4708C24.8716 35.4401 24.9571 35.3869 25.0264 35.3158C25.0957 35.2447 25.4145 31.3881 28.3145 25.4311C29.5746 26.3939 30.7835 27.474 32.1485 28.8514C32.1939 29.3485 32.2616 29.5483 32.402 31.758C32.4623 32.6978 32.5151 32.5854 33.3665 32.9504C33.9999 33.2254 34.0403 33.2535 34.2558 33.2229C34.4134 33.2489 34.5749 33.2126 34.7062 33.1217C34.8375 33.0308 34.9283 32.8924 34.9594 32.7357C35.037 32.3493 35.1642 31.9405 35.3046 31.54C39.0279 35.1569 42.1996 39.0842 43.2591 44.2914C41.2518 46.2297 38.9102 47.7885 36.3475 48.8925C36.3723 46.6192 35.5919 43.8818 34.3962 42.4425C33.3434 41.1741 32.0263 40.5416 30.7901 40.6969C28.5532 40.9851 27.5177 43.5829 25.8191 43.8595C24.7415 44.0379 23.597 42.8835 23.7861 41.8034C23.9281 41.0106 24.5656 39.8595 23.7927 38.9388C23.3253 38.3773 22.5194 38.2072 21.5227 38.4566C19.54 38.9553 17.7737 40.3244 16.7969 42.1213C16.0322 43.5309 15.8943 45.7009 16.1544 47.4805C11.2329 44.4863 7.47571 39.644 5.83741 33.801C7.88528 34.1982 9.94142 33.7242 11.5112 32.6474C12.3683 32.0578 12.7531 31.3097 12.5657 30.5904C12.3386 29.7234 11.4691 29.4509 10.9819 29.1206C10.3708 28.7019 10.1569 27.7457 10.5351 27.1165C10.9059 26.4955 11.7077 26.1371 12.6078 25.6838C15.7432 24.0554 15.2362 21.3593 12.3691 20.1372C10.4575 19.3197 8.24614 19.1545 6.21891 19.6425C8.58883 12.9523 14.0743 7.6575 20.7365 5.26776C20.8356 9.08771 22.8802 10.9539 24.8827 11.1678C27.8116 11.4733 30.3921 7.96386 32.7282 8.81686C34.0601 9.30406 34.7529 11.1273 36.3029 12.0002C38.5374 13.2603 41.563 11.9341 41.866 9.08854C46.1286 12.6938 48.9981 17.7738 50.003 23.2395C51.0204 28.7738 50.1269 34.7027 46.8321 39.8951C45.5291 35.1288 42.1649 31.0124 39.0039 27.3105Z"></path>
                                            <path d="M45.688 20.0813C45.2445 19.7733 45.228 19.7592 45.271 19.163C45.2908 18.8831 45.3139 18.5652 45.228 18.2324C44.7854 16.5066 42.2842 16.405 41.5807 18.2208C41.0852 19.5016 38.8581 20.1193 39.8969 22.7955C40.7929 25.1044 44.1876 26.0127 45.9993 24.2959C46.5575 23.7675 46.8812 22.9714 46.8655 22.168C46.844 21.1688 46.3907 20.5676 45.688 20.0813ZM41.0522 22.3472C40.3214 20.4653 42.0472 20.4438 42.7359 18.6684C42.8598 18.3488 43.176 18.1325 43.4518 18.1325C43.7053 18.1325 43.9712 18.3183 44.0282 18.5396C44.1289 18.9335 43.849 19.6378 44.2041 20.3183C44.6739 21.2183 45.6046 21.0614 45.6269 22.1927C45.6715 24.4958 41.8796 24.485 41.0522 22.3472ZM40.7285 3.91543L41.181 0.678461C41.196 0.519515 41.1491 0.360902 41.0501 0.235641C40.9512 0.110379 40.8077 0.0281209 40.6496 0.00598937C40.4914 -0.0161421 40.3309 0.0235584 40.2013 0.116827C40.0717 0.210095 39.9831 0.349744 39.9539 0.506704L39.5014 3.7445C39.3891 4.55622 40.6145 4.72715 40.7285 3.91543ZM44.5625 1.92123L42.5427 4.81881C42.0695 5.49675 43.1009 6.18544 43.5583 5.52648L45.5781 2.62973C45.6267 2.56312 45.6614 2.48751 45.6803 2.40732C45.6992 2.32713 45.702 2.24397 45.6883 2.16271C45.6747 2.08145 45.645 2.00373 45.601 1.93409C45.5569 1.86446 45.4994 1.80431 45.4319 1.75717C45.3643 1.71003 45.288 1.67685 45.2074 1.65957C45.1269 1.64229 45.0437 1.64126 44.9627 1.65654C44.8817 1.67182 44.8046 1.7031 44.7359 1.74855C44.6672 1.794 44.6082 1.8527 44.5625 1.92123ZM45.9002 8.59665L49.4741 5.91624C49.6055 5.81769 49.6923 5.67097 49.7156 5.50837C49.7388 5.34577 49.6965 5.1806 49.5979 5.04919C49.4994 4.91779 49.3527 4.83092 49.1901 4.80769C49.0275 4.78446 48.8623 4.82678 48.7309 4.92533L45.1562 7.60656C44.4964 8.10119 45.2536 9.08384 45.8994 8.59747L45.9002 8.59665Z"></path> 
                                        </svg>
