<svg xmlns="http://www.w3.org/2000/svg" width="50" height="50" viewBox="0 0 50 50">
                                            <path d="M5.66947 36.6609C9.05854 38.343 4.17963 48.0906 9.21947 48.332C54.2328 47.6445 44.4359 56.6664 45.1585 11.6133C45.171 9.93984 43.5593 9.04609 42.032 9.26953C42.5562 6.31797 39.5507 5.87656 37.3445 6.14453C38.6374 -0.242187 28.2382 -0.238281 29.532 6.14453H27.1882C28.4812 -0.242187 18.082 -0.238281 19.3757 6.14453H17.032C18.3249 -0.242187 7.92572 -0.238281 9.21947 6.14453C7.42572 6.05391 4.49291 5.95078 4.53197 8.48828C4.95385 9.79609 3.41557 36.7969 5.66947 36.6609ZM43.6179 11.9508C43.671 12.621 43.6676 13.2944 43.6078 13.9641C42.9851 13.8078 42.4984 14.368 42.032 14.6953V13.8781C43.8515 13.8359 44.1726 11.7141 42.032 12.8078V12.5563C42.6118 12.5295 43.1678 12.3173 43.6179 11.9508ZM42.032 15.4109C42.5762 15.3576 43.0994 15.1735 43.557 14.8742C43.5377 15.09 43.5506 15.3075 43.5953 15.5195H42.0328L42.032 15.4109ZM42.8132 10.8328C42.9431 10.8215 43.0732 10.8528 43.1838 10.9218C43.2944 10.9909 43.3796 11.094 43.4265 11.2156C42.9218 11.0828 42.4343 11.5266 42.0328 11.7859V10.8328H42.8132ZM42.032 17.0828H43.5945C43.1656 58.7891 50.2101 44.5047 9.21869 46.7711C7.63041 47.0047 8.76244 40.1023 8.439 39.4367C10.046 40.5859 13.2328 45.3703 15.4703 45.2078C49.5437 45.1617 41.2476 49.9656 42.0328 17.0828H42.032ZM10.782 35.8328H15.4695V40.5203H13.907C14.2062 38.3711 13.3257 35.8 10.782 35.8328ZM12.3445 41.1336L8.60619 37.3945C11.9788 37.0828 12.6124 37.8086 12.3453 41.1336H12.3445ZM31.0945 4.58203C31.0945 2.68125 33.7156 2.83516 34.9695 3.17969C31.4851 4.76172 32.6585 6.36953 35.6999 4.29531C35.7638 4.58976 35.8004 4.88946 35.8093 5.19063C33.9687 5.65156 33.2468 7.50469 35.7999 6.24375C35.7867 6.56094 35.771 6.86641 35.7656 7.13594C34.8882 7.38047 34.5054 8.47422 35.746 8.08359C35.4882 9.37969 33.7538 9.33359 32.657 9.26953C30.4132 9.32578 31.239 5.9 31.0945 4.58203ZM20.9382 4.58203C20.9179 2.66094 23.8976 2.69766 25.0492 3.34141C22.0578 4.28281 22.7648 6.40391 25.5335 4.25547C25.6096 4.59147 25.6507 4.93444 25.6562 5.27891C25.2859 5.45547 24.7288 5.52813 24.6109 5.99609C23.1632 6.69219 23.807 7.84219 25.0773 6.77734C25.2641 6.81224 25.4573 6.78161 25.6242 6.69063C25.614 6.94844 25.6054 7.18906 25.6093 7.39922C24.4078 7.67578 23.4874 9.53516 25.389 8.56953C24.839 9.36484 23.4374 9.32422 22.5007 9.26953C20.257 9.32578 21.0828 5.9 20.9382 4.58203ZM10.782 4.58203C10.7335 2.64063 14.1101 2.55938 15.0796 3.54609C11.7578 4.46406 12.4234 7.02813 15.4335 4.51953C15.4807 4.83712 15.5037 5.15784 15.5023 5.47891C13.5132 6.13672 12.9374 8.31641 15.4828 6.35781C15.4687 6.67266 15.4554 6.96797 15.4531 7.23047C14.7656 7.43047 14.207 8.78672 15.3288 8.40313C14.8671 9.37031 13.3421 9.32734 12.3445 9.27031C10.1007 9.32578 10.9265 5.9 10.782 4.58281V4.58203ZM6.09447 8.48828C6.04213 7.20703 8.53354 7.85625 9.21947 7.70703C9.16088 12.007 17.0913 12.007 17.032 7.70703H19.3757C19.3171 12.007 27.2476 12.007 27.1882 7.70703H29.532C29.4734 12.007 37.4038 12.007 37.3445 7.70703C41.7523 7.08438 40.2242 9.41172 40.4695 12.3945C29.257 12.2234 17.2445 13.2039 6.09447 12.3945V8.48828ZM40.4695 13.957C38.5992 49.3789 50.307 43.2617 15.4703 43.6445C15.0559 43.6443 14.6586 43.4796 14.3656 43.1867C14.0726 42.8937 13.908 42.4964 13.9078 42.082C18.1734 43.0578 16.8531 38.2875 17.0328 35.832C17.1382 33.2672 12.1546 34.5687 10.7828 34.2695C10.3685 34.2699 9.97129 34.4347 9.67836 34.7276C9.38542 35.0206 9.22067 35.4178 9.22025 35.832C8.02416 35.8969 6.06869 35.9586 6.09525 34.2695V13.957H40.4695Z"></path>
                                            <path d="M9.21807 17.0688C9.51573 18.7555 8.39619 21.9665 10.1267 22.8079C12.2282 22.4962 16.5595 23.8563 17.1407 21.0844C16.9696 19.1626 17.1954 15.0055 14.3954 15.3407C13.204 15.6376 7.25557 14.7547 9.21807 17.0688ZM11.4728 16.8477C16.0353 16.0212 16.329 16.5422 15.7259 21.1446C14.1332 21.4168 12.5126 21.4866 10.9024 21.3524C10.7571 19.8782 10.6392 18.4305 10.4118 16.9641C10.7665 16.9087 11.1337 16.886 11.4728 16.8477ZM19.9399 16.6751C20.0267 18.1751 18.7251 22.3782 20.7759 22.5501C22.8774 21.8126 25.5978 23.0063 27.397 21.8993C27.4532 19.7093 27.05 17.5318 26.2134 15.5071C24.3962 14.7297 22.2134 15.6438 20.2774 15.2743C20.1127 15.2774 19.9537 15.335 19.8252 15.4381C19.6968 15.5413 19.6061 15.6841 19.5675 15.8443C19.529 16.0044 19.5446 16.1729 19.612 16.3232C19.6794 16.4736 19.7947 16.5973 19.9399 16.6751ZM21.8017 16.4922C23.0661 16.3429 24.3378 16.2633 25.611 16.254C25.8165 17.7454 25.8689 19.2766 26.022 20.7805C24.4624 20.6216 22.8896 20.6473 21.336 20.8571C21.3219 19.444 21.1891 18.0347 20.9392 16.6438C21.2229 16.5737 21.511 16.523 21.8017 16.4922ZM30.1595 21.2258C29.6485 24.2493 35.347 22.7555 37.1329 22.6087C38.3181 21.3227 37.7798 16.0962 36.3649 15.1258C30.2446 14.1016 29.1571 15.1657 30.1595 21.2258ZM31.8587 21.868L31.9056 21.9493C31.8743 22.0329 31.8587 22.0016 31.8587 21.868ZM31.4196 16.5063C32.9296 16.2537 34.4627 16.1667 35.9915 16.2469C36.2524 17.9231 36.3282 19.6229 36.2173 21.3157C34.7485 21.3883 33.2853 21.4188 31.8149 21.4665C31.5884 19.804 31.1845 18.1774 31.0689 16.5008C31.185 16.5214 31.3029 16.5232 31.4196 16.5063ZM16.5571 24.7094C15.1235 24.4001 10.0064 23.8297 9.89854 25.754C9.84932 27.2766 8.88135 32.1024 10.8384 32.4055C12.5026 32.1041 14.1869 31.9273 15.8774 31.8766C18.3071 30.9532 18.1978 26.2852 16.5571 24.7094ZM16.0314 28.7329C15.9644 29.1936 15.8511 29.6465 15.6931 30.0844C15.6962 30.079 15.6087 30.2251 15.654 30.1571C14.3337 30.5852 12.6962 30.2399 11.3017 30.7094C11.2156 29.2218 11.055 27.7395 10.8204 26.268C13.5923 25.9805 16.9454 24.4352 16.0314 28.7329ZM37.0267 23.9063C35.7907 23.7915 30.8079 23.2391 31.5696 25.3454C30.5118 26.5891 31.0603 28.8805 30.9009 30.4719C31.1501 32.6782 33.9587 31.4227 35.4103 31.5001C36.5884 31.5133 38.0165 31.2172 38.0813 29.7915C38.2181 27.9766 38.9001 24.9555 37.0267 23.9063ZM36.6438 25.2657H36.6517C36.8079 25.2508 36.661 25.3227 36.6438 25.2657ZM32.5024 30.3047C32.5095 30.3313 32.529 30.3008 32.5024 30.3047V30.3047ZM36.711 27.7915C36.6761 28.452 36.5774 29.1077 36.4165 29.7493C35.1161 29.8952 33.812 30.0054 32.5056 30.0797C32.361 28.5962 32.6501 26.9446 32.0524 25.5641C33.5423 25.5954 35.1212 25.1352 36.6321 25.2665C36.7494 26.1028 36.7764 26.9495 36.711 27.7915ZM27.8267 34.3415C21.4095 32.7813 19.8767 34.236 20.5899 40.6805C20.7149 43.6149 24.5399 42.2008 26.4095 42.2133C28.1056 42.393 28.597 40.843 28.4126 39.4329C28.122 37.818 29.3212 35.4485 27.8267 34.3415ZM22.0728 40.8102C22.0919 40.8078 22.1114 40.8115 22.1283 40.8208C22.1453 40.83 22.1589 40.8444 22.1673 40.8618C22.1379 40.8409 22.1062 40.8236 22.0728 40.8102ZM26.9298 40.6985C26.8767 40.7337 26.9079 40.7704 26.9298 40.6985V40.6985ZM27.4024 36.1212C27.3004 37.6484 27.144 39.1715 26.9337 40.6876C25.3915 40.7391 23.7673 41.2032 22.247 40.9118C22.2626 39.0224 22.0985 37.1358 21.7571 35.2774C23.0407 35.4938 27.6071 34.243 27.4024 36.1212ZM35.2751 33.8954C34.3548 34.129 30.6767 33.4594 31.7368 35.1555C31.1649 37.0415 30.9142 40.2649 32.4634 41.6438C34.6789 41.9689 36.9371 41.8486 39.1056 41.2899C40.0743 37.8508 40.4118 32.5493 35.2751 33.8954ZM38.3392 34.7571C38.9439 36.3704 38.4657 38.6251 38.2767 40.4001C36.5923 40.1133 34.8806 40.6336 33.1915 40.361C32.7506 38.6801 32.5367 36.9478 32.5556 35.2102C34.4743 35.0813 36.4228 34.4532 38.3392 34.7571ZM21.5751 24.7719C21.57 24.7937 21.5671 24.816 21.5665 24.8383L21.5751 24.7719ZM21.5657 24.854C21.5623 24.8713 21.5597 24.8887 21.5579 24.9063L21.5657 24.854Z"></path>
                                            <path d="M19.6718 26.4C20.289 26.6039 22.314 24.7429 21.2476 24.2906C20.396 24.182 19.0288 25.6539 19.6718 26.4ZM19.5827 29.314C20.9991 30.5437 20.0515 28.075 20.0624 27.3453C19.2999 26.2859 19.107 28.8703 19.5827 29.314ZM21.914 30.4859C20.5343 29.1734 20.6562 31.2281 21.7124 31.7195C22.9085 32.7117 24.5695 31.2875 22.532 30.7922L22.6781 30.8547C22.4106 30.7597 22.1549 30.6361 21.914 30.4859Z"></path>
                                            <path d="M24.1401 31.9914C25.2409 32.5898 28.148 30.7546 26.0495 30.2836C25.4542 30.5742 22.9644 31.1632 24.1401 31.9914ZM28.8058 28.3789C27.9636 28.2546 27.5323 29.4937 27.1862 30.0828C27.5737 31.5093 29.9198 29.0093 28.8058 28.3789ZM24.2198 24.3953C26.823 25.1898 26.8769 23.0554 24.3347 23.1421C22.2276 23.0179 21.9315 24.3187 24.2198 24.3953Z"></path>
                                            <path d="M26.9936 24.5203C27.0385 24.9943 27.206 25.4485 27.4796 25.8382L27.3835 25.7132C27.5272 25.9226 27.6749 26.189 27.9679 26.1656C26.9694 26.9679 26.1897 28.4546 25.2624 26.7203C23.6429 24.6945 24.0827 27.6843 24.9069 28.4898C27.6694 32.1461 35.5116 19.1734 28.5038 25.6734C28.7436 24.9273 27.5116 23.4054 26.9936 24.5203Z"></path>
                                        </svg>