<svg xmlns="http://www.w3.org/2000/svg" width="50" height="50" viewBox="0 0 50 50">
                                            <path d="M45.2306 16.3701C44.4797 16.2792 42.0231 16.3667 41.2539 16.3401C40.3072 16.3392 37.9256 16.3284 37.0031 16.3284L36.2947 16.3267C35.8472 16.3667 35.5981 15.9817 35.7639 15.6001C35.8456 15.3684 36.2889 14.2034 36.3806 13.9392C37.4831 10.9742 39.2206 6.27672 40.3331 3.31506C40.4872 2.89506 40.7064 2.36756 40.8431 1.93589C41.0231 1.24339 40.4839 0.465889 39.7447 0.421722L28.3756 0.297556C26.9806 0.269222 22.0672 0.185056 20.7597 0.157556C20.5015 0.141301 20.2433 0.190972 20.0095 0.301905C19.7756 0.412837 19.5739 0.581388 19.4231 0.791722C19.2122 1.05256 19.1689 1.41506 19.0881 1.70839C19.0156 1.98839 18.8631 2.66256 18.7389 3.19256C18.5227 3.17894 18.3159 3.09923 18.1464 2.96422C16.9681 2.00672 15.8389 1.21422 14.4172 2.33089C13.8472 2.71006 13.5556 3.20839 12.9197 3.29839C12.1997 3.33506 11.4764 3.03756 10.6314 3.21589C10.1231 3.30256 9.62391 3.74256 9.40308 4.17922C9.03641 4.79922 8.94225 5.57589 8.54558 6.04756C8.10641 6.46839 7.31225 6.60089 6.72058 6.97922C5.79891 7.43006 5.68141 8.58839 5.88558 9.42506C5.99058 10.1201 6.16225 10.6126 5.72058 11.2067C4.21975 13.0684 4.23225 13.6176 5.76808 15.4317C6.23641 16.0126 6.09308 16.5651 5.99808 17.2634C5.52141 19.7509 7.33975 19.5109 8.70475 20.4642C9.11391 20.8742 9.24225 21.6476 9.63641 22.3551C10.0164 23.2076 11.1122 23.3259 11.9031 23.1517C12.6022 23.0542 13.1689 22.9117 13.7522 23.3826L14.2264 23.7526L13.6922 26.0401L13.6231 26.3392C13.3622 27.3176 14.2506 28.3551 15.2264 28.3092C15.2381 28.3026 20.3906 28.3426 20.6331 28.3226C21.3089 28.3251 25.8106 28.3284 26.3756 28.3334C26.3764 28.2876 25.7031 30.5542 25.6997 30.5509L20.2164 48.9792C20.1713 49.1232 20.178 49.2785 20.2355 49.418C20.293 49.5575 20.3976 49.6725 20.5311 49.7428C20.6646 49.8132 20.8185 49.8345 20.9661 49.8031C21.1137 49.7717 21.2456 49.6895 21.3389 49.5709C25.9206 43.6867 37.8056 28.4417 42.2781 22.7751L45.7864 18.3242C46.3931 17.7292 46.0847 16.5559 45.2314 16.3726L45.2306 16.3701ZM11.8014 22.4692C11.1481 22.5642 10.5564 22.6667 10.2047 22.0176C9.85391 21.4642 9.77725 20.6842 9.17225 19.9934C8.48891 19.3751 7.70475 19.2934 7.15641 18.9459C6.51225 18.5934 6.62308 18.0176 6.71558 17.3676C6.87225 16.6209 6.94225 15.6359 6.38641 14.9892C5.93891 14.3659 5.38225 13.8167 5.39808 13.3334C5.44975 12.5151 6.97641 11.5484 6.91975 10.4659C6.96225 9.73506 6.69725 8.99422 6.80891 8.36006C6.86225 8.14006 6.97641 8.01839 7.24141 7.86589C7.90725 7.50506 8.67141 7.43089 9.33141 6.83339C9.94391 6.19922 10.0572 5.42756 10.4381 4.78672C10.6006 4.53672 10.7006 4.46839 10.8839 4.43506C11.5072 4.36672 12.2214 4.65089 12.9722 4.63172C13.8306 4.66256 14.6372 3.92506 15.2397 3.48256C16.0697 2.80506 16.5381 3.73089 17.2706 4.19422C17.9539 4.81256 19.1422 4.80089 19.9272 4.63589C20.3597 4.59756 20.6456 4.51672 20.8822 4.67922C21.4181 5.37339 21.3922 6.26756 22.1339 7.03172C22.8922 7.77172 23.7789 7.76672 24.4672 8.30006C24.7081 8.90589 24.3289 9.69256 24.4022 10.4809C24.3472 11.6217 25.6456 12.4426 25.9189 13.3351C25.9281 13.4384 25.8514 13.6601 25.6697 13.9176C25.3731 14.3101 24.8689 14.9559 24.6714 15.4201C24.2714 16.3442 24.7897 17.4359 24.7122 18.2784C24.5997 18.7659 23.9447 18.9026 23.4556 19.1351C23.1056 19.2901 22.7039 19.4534 22.3239 19.8267C21.7239 20.4917 21.6547 21.2509 21.2989 21.9251C20.9839 22.5351 20.5072 22.4092 19.8797 22.3509C19.3247 22.2792 18.6022 22.1551 18.0164 22.4151C17.2406 22.7417 16.4731 23.7776 15.8314 23.7867C15.3331 23.8059 14.7797 23.2476 14.1614 22.8001C13.5181 22.2484 12.5456 22.3151 11.8006 22.4709L11.8014 22.4692ZM40.8939 23.3301C40.4396 23.0196 39.974 22.7261 39.4981 22.4501C38.5206 21.8827 37.5303 21.3375 36.5281 20.8151C35.7414 20.4059 34.9481 20.0101 34.1506 19.6217C33.3689 19.2367 32.5754 18.876 31.7714 18.5401C31.7283 18.5225 31.6843 18.507 31.6397 18.4934C31.5974 18.4811 31.5522 18.4828 31.5108 18.4981C31.4694 18.5134 31.434 18.5415 31.4097 18.5784C31.3832 18.6186 31.372 18.667 31.3783 18.7148C31.3845 18.7625 31.4079 18.8064 31.4439 18.8384C31.4931 18.8801 31.5472 18.9209 31.6064 18.9584C33.0748 19.8764 34.5782 20.7373 36.1131 21.5392L36.2039 21.5867C36.9856 21.9951 37.7747 22.3892 38.5714 22.7692C39.2422 23.0884 39.9222 23.3917 40.6039 23.6901L39.5972 24.9417C37.8973 23.9301 36.1406 23.0334 34.3864 22.1301C32.5106 21.2176 30.6406 20.2917 28.7006 19.5076C28.6505 19.4882 28.595 19.4882 28.545 19.5075C28.4949 19.5269 28.4538 19.5642 28.4298 19.6122C28.4057 19.6602 28.4004 19.7154 28.4149 19.7671C28.4294 19.8188 28.4626 19.8632 28.5081 19.8917C30.3097 20.9468 32.1454 21.9426 34.0122 22.8776C35.7478 23.7445 37.5091 24.5588 39.2939 25.3192L37.5656 27.4642C37.1446 27.1642 36.712 26.8806 36.2689 26.6142C35.3089 26.0465 34.3338 25.5047 33.3447 24.9892C31.9964 24.2942 30.6472 23.6017 29.2347 23.0209C29.1581 22.9892 29.0689 23.0067 29.0206 23.0634C28.9631 23.1309 28.9731 23.2217 29.0306 23.2651C29.8756 23.9034 31.1698 24.7134 32.5539 25.4809C32.7731 25.6026 32.9947 25.7201 33.2172 25.8384C34.0816 26.2962 34.9551 26.7366 35.8372 27.1592C36.3481 27.4051 36.8264 27.6234 37.2781 27.8192L35.5697 29.9351C35.3494 29.7439 35.1185 29.5653 34.8781 29.4001C34.2631 28.9742 33.5647 28.5642 33.0314 28.2451C32.9247 28.1809 32.8331 28.1242 32.7581 28.0817C31.7747 27.5184 30.7831 26.9709 29.7272 26.5242C29.6706 26.5001 29.6056 26.4976 29.5639 26.5209C29.5114 26.5509 29.4997 26.6026 29.5114 26.6284C29.6789 26.9967 30.7014 27.7667 31.8897 28.4976C32.6871 28.9743 33.4983 29.4276 34.3222 29.8567C34.6681 30.0384 34.9831 30.1959 35.2572 30.3234L33.6672 32.2901C33.6356 32.2617 33.6056 32.2334 33.5722 32.2051C33.0639 31.7667 32.3822 31.3026 32.2572 31.1926C31.5939 30.7592 30.9381 30.3142 30.1922 29.9984C29.4564 30.0276 30.2647 30.7801 31.3097 31.5334C31.8322 31.9101 32.4139 32.2867 32.8906 32.5726C33.0256 32.6534 33.1489 32.7251 33.2639 32.7892C29.4839 37.4642 25.4122 42.4901 22.4797 46.1076L27.2672 31.0351C27.4981 30.2951 27.7922 29.4192 27.9981 28.6609C28.2406 27.6559 27.3481 26.6142 26.3372 26.6709C26.1389 26.6659 25.6439 26.6792 25.4364 26.6726L20.6306 26.6801C20.3131 26.6626 15.2606 26.7192 15.1581 26.6801C15.1581 26.6801 15.1539 26.6751 15.1547 26.6626L15.2131 26.3751L15.5914 24.5159C16.4372 24.6417 17.1714 24.0359 17.9506 23.4334C18.5464 22.9901 19.0472 23.1617 19.7431 23.2684C21.4189 23.6551 22.1614 22.8701 22.6864 21.3776C23.0931 19.9742 24.7206 20.3401 25.5922 19.3034C26.1014 18.7534 26.0539 17.8001 25.9606 17.2167C25.8856 16.5617 25.7464 16.1076 26.1597 15.6159C26.6547 14.9376 27.3564 14.4001 27.4089 13.3334C27.4014 12.6917 27.1114 12.2267 26.8789 11.8851L26.2222 11.0059C25.8514 10.5109 26.0247 10.1167 26.1131 9.47172C26.2397 8.87506 26.2872 7.82339 25.7481 7.23256C25.1481 6.45256 23.9506 6.33006 23.3164 5.84756C22.9614 5.43506 22.8231 4.65506 22.4464 4.06839C22.1989 3.60089 21.6197 3.12006 21.0689 3.04089C20.8041 2.99404 20.5342 2.98283 20.2664 3.00756L20.3272 2.70339C20.3881 2.45672 20.4856 1.80589 20.5572 1.58506C20.5664 1.56759 20.5793 1.55235 20.595 1.5404C20.6107 1.52845 20.6288 1.52008 20.6481 1.51589L21.2872 1.50172C25.7347 1.39589 35.1256 1.29506 39.6722 1.25506C39.9081 1.25756 40.1047 1.51672 40.0497 1.76089C39.2231 4.14756 37.5539 8.62256 36.6889 11.0351L35.7172 13.6976C35.6206 13.9542 35.2006 15.1251 35.1097 15.3617C34.7422 16.1451 35.4531 17.1126 36.2906 17.0092L37.5964 17.0051C38.4874 17.685 39.4134 18.3178 40.3706 18.9009C40.8862 19.2137 41.4106 19.5118 41.9431 19.7951C42.3614 20.0176 42.7889 20.2234 43.2181 20.4276L42.2014 21.6967C41.8647 21.4328 41.5136 21.1877 41.1497 20.9626C40.3332 20.4554 39.5043 19.9683 38.6639 19.5017C38.0126 19.1414 37.3547 18.793 36.6906 18.4567C36.0351 18.1173 35.3672 17.8026 34.6881 17.5134C34.6521 17.4981 34.6143 17.4875 34.5756 17.4817C34.5388 17.4762 34.5011 17.481 34.4669 17.4956C34.4326 17.5101 34.403 17.5339 34.3814 17.5642C34.3578 17.5965 34.3447 17.6353 34.344 17.6752C34.3433 17.7152 34.3549 17.7544 34.3772 17.7876C34.4092 17.834 34.4493 17.8744 34.4956 17.9067C35.6965 18.7318 36.9366 19.4986 38.2114 20.2042L38.2864 20.2459C38.9352 20.6068 39.592 20.953 40.2564 21.2842C40.8006 21.5559 41.3547 21.8101 41.9097 22.0617L41.7022 22.3201L40.8906 23.3326L40.8939 23.3301ZM45.2497 17.8951L43.5397 20.0284C43.3068 19.8286 43.0625 19.6425 42.8081 19.4709C41.9806 18.9009 40.9473 18.3051 40.8073 18.1842C40.2856 17.8817 39.7664 17.5767 39.2372 17.2876C39.0564 17.1884 38.8731 17.0951 38.6906 17.0001C40.5189 16.9951 42.4806 16.9917 44.0872 16.9967C44.2364 17.0051 44.9547 16.9809 45.0647 17.0184C45.4389 17.1359 45.5731 17.5834 45.2497 17.8951Z"></path>
                                            <path d="M14.9115 10.0001C15.089 6.80345 10.2831 6.86262 10.4331 10.0001C10.649 12.6835 14.6998 12.7326 14.9115 10.0001ZM13.419 10.0001C13.6148 11.7276 11.1123 11.6976 11.2306 10.0001C11.494 8.61679 13.1423 8.84762 13.419 10.0001ZM17.0998 16.6668C17.3156 19.3501 21.3665 19.3993 21.5781 16.6668C21.7556 13.4701 16.9498 13.5293 17.0998 16.6668ZM20.0865 16.6668C20.2823 18.3943 17.7798 18.3643 17.8981 16.6668C18.1615 15.2835 19.8098 15.5143 20.0865 16.6668ZM19.519 8.68679L11.0765 16.911C10.289 17.6876 11.4823 18.8735 12.2548 18.0893L20.479 9.64679C21.0898 9.01512 20.1456 8.07845 19.519 8.68679Z"></path>
                                        </svg>