<svg xmlns="http://www.w3.org/2000/svg" width="50" height="50" viewBox="0 0 50 50">
                                            <g>
                                              <path d="M48.054 33.9358C46.3946 32.3521 44.3614 35.2663 39.6741 37.0463C35.8749 38.4934 35.0935 38.5652 33.1112 38.8918C31.6 39.1389 27.5576 39.803 25.6657 39.4818C27.5174 38.376 29.1846 36.7914 30.6464 35.1775C33.0541 32.5667 33.9668 32.0138 34.0981 30.6393C34.2317 29.3544 33.4502 28.1567 31.997 27.8355C28.702 27.0695 26.2842 30.5019 24.3877 31.8718C23.1074 32.7999 21.2904 32.5822 20.0526 32.6926V32.6911C17.1762 32.864 15.3831 34.3343 12.6743 34.9049C12.57 34.4424 12.4673 33.9799 12.3422 33.5204C12.021 32.3235 10.8449 31.4803 9.59164 31.5521C6.63722 31.6833 7.09436 31.9359 4.70209 32.0331C3.30827 32.0911 2.10364 32.1413 1.58782 32.7598C1.49503 32.8702 1.42703 32.9992 1.38839 33.1382C1.34976 33.2771 1.3414 33.4227 1.36388 33.5652C1.97778 37.9381 1.64573 41.0632 2.17391 44.2493C2.19962 44.4002 2.28401 44.5348 2.40864 44.6236C2.53328 44.7125 2.68802 44.7484 2.83905 44.7235C2.99007 44.6986 3.1251 44.6149 3.21462 44.4908C3.30413 44.3666 3.34086 44.2121 3.31677 44.0609C2.85576 41.2779 3.09283 37.5922 2.51909 33.471C3.02951 33.1513 5.47274 33.2447 6.50826 33.0447C7.38548 32.8748 8.4403 32.7621 9.64338 32.7088C10.3553 32.6911 11.0457 33.1567 11.2256 33.8223C12.4735 38.4362 12.6387 43.22 11.7106 47.6933C9.67504 47.5813 7.67505 47.3829 5.6295 47.2871C5.34456 47.2671 5.03877 47.5188 5.02332 47.8385C5.01619 47.9919 5.07027 48.1418 5.17366 48.2553C5.27705 48.3689 5.42129 48.4367 5.57467 48.4439L5.60556 48.4454L6.53529 49.3257C7.33683 50.0856 8.04879 50.0006 12.6897 49.9945C13.2341 49.9945 13.6681 49.6207 13.6966 49.108C13.7615 47.9227 13.8125 46.7064 13.8827 45.5327C19.6696 48.4694 25.8974 49.6138 31.6495 48.786C37.4834 47.9466 42.8077 45.0848 46.8177 40.6347C47.4479 39.9358 48.0564 39.1798 48.3876 38.2192C48.5977 37.6107 48.7614 36.6717 48.5436 35.9188C48.7745 35.0864 48.5706 34.43 48.054 33.9358ZM18.6125 34.0702C20.885 33.4988 22.6472 34.2648 24.8773 32.9304C26.6178 31.9034 27.8008 29.7698 30.1112 29.0308C30.1885 29.0308 31.9777 28.5166 32.6765 29.5289C32.6943 29.5544 32.7429 29.6123 32.7645 29.6355C33.3035 31.1691 32.7506 31.1876 29.817 34.369C29.7784 34.4038 29.7584 34.4308 29.7645 34.4308H29.7661C29.3205 34.7721 27.3622 37.3296 24.5244 38.8208C24.4727 38.8486 24.4325 38.8887 24.3931 38.9289C23.8673 38.8864 23.57 39.5026 23.9144 39.8887C25.1236 41.247 29.3931 40.6764 33.2997 40.0339C34.2286 39.8069 34.9537 40.0818 40.0865 38.1296C43.6842 36.7629 47.4633 33.393 47.4841 35.2849C47.4957 36.42 45.5282 38.1366 44.7112 38.9358C42.6741 40.874 40.5143 42.3505 38.0626 43.5698C29.9831 47.525 22.2132 45.7026 13.4295 43.0964C13.5197 40.7318 13.3436 38.3645 12.9044 36.0393C14.875 35.6254 16.9453 34.5335 18.6125 34.0702Z"></path>
                                              <path d="M8.86952 36.5683C10.3436 36.9305 11.0695 35.1552 10.0155 34.2811C9.95397 34.229 9.88207 34.1906 9.80457 34.1685C9.72708 34.1464 9.64576 34.1411 9.56604 34.1529C9.26334 34.0031 8.91894 33.966 8.61855 34.061C7.4286 34.4286 7.45794 36.2232 8.86952 36.5683ZM21.2255 17.6557C21.4764 17.6557 21.7243 17.5954 21.9529 17.492L24.264 19.8101L24.2332 19.8132C24.0802 19.8257 23.9384 19.8984 23.8391 20.0155C23.7397 20.1325 23.6909 20.2841 23.7034 20.4371C23.7159 20.5901 23.7887 20.7319 23.9057 20.8312C24.0227 20.9306 24.1744 20.9793 24.3274 20.9669L25.7799 20.8472C25.9305 20.8349 26.0704 20.7643 26.1697 20.6503C26.2689 20.5363 26.3197 20.388 26.3111 20.2371L26.2293 18.8194C26.2195 18.6663 26.1499 18.5233 26.0354 18.4213C25.9209 18.3192 25.7709 18.2664 25.6177 18.2742C25.4644 18.2832 25.3209 18.3526 25.2186 18.4672C25.1164 18.5819 25.0639 18.7324 25.0725 18.8858L25.0787 18.9862L22.7776 16.6796C22.8982 16.4328 22.9598 16.1614 22.9577 15.8867C22.9556 15.612 22.8897 15.3415 22.7652 15.0966L25.5868 12.18L25.5884 12.2426C25.592 12.3937 25.6546 12.5375 25.7628 12.6431C25.8711 12.7488 26.0163 12.8079 26.1675 12.8078H26.1822C26.2582 12.8059 26.3332 12.789 26.4027 12.7582C26.4723 12.7273 26.535 12.683 26.5875 12.6279C26.6399 12.5727 26.6809 12.5078 26.7082 12.4368C26.7356 12.3658 26.7486 12.2901 26.7467 12.214L26.7096 10.7569C26.7058 10.6058 26.6431 10.4623 26.5349 10.3568C26.4267 10.2513 26.2815 10.1923 26.1304 10.1924H24.7104C24.5568 10.1924 24.4095 10.2534 24.3009 10.362C24.1922 10.4706 24.1312 10.6179 24.1312 10.7715C24.1312 10.9251 24.1922 11.0724 24.3009 11.1811C24.4095 11.2897 24.5568 11.3507 24.7104 11.3507H24.7776L21.9297 14.2951C21.5732 14.1453 21.1758 14.1241 20.8054 14.2348C20.4378 14.3385 20.1134 14.558 19.8805 14.8607C19.6477 15.1635 19.5187 15.5332 19.5127 15.9151C19.4988 16.8016 20.2332 17.6557 21.2255 17.6557Z"></path>
                                              <path d="M24.1033 4.07343C22.999 3.8874 21.8748 3.84948 20.7604 3.96069C17.735 4.07497 15.0385 5.32207 12.7458 7.67187C11.7207 8.72119 10.8996 9.95186 10.3242 11.3012C9.82003 12.4955 9.51659 13.7648 9.42613 15.0579C9.21378 17.99 10.0748 20.766 11.9172 23.0842C12.2945 23.5523 12.7073 23.9907 13.152 24.3954C13.9968 25.661 15.2771 26.6896 16.6709 27.3513C23.6299 30.6548 32.1581 26.3683 33.6314 18.3938C34.2986 14.7838 33.2978 10.919 31.0237 8.02322C29.2662 5.78307 26.9257 4.54215 24.1033 4.07343ZM10.5782 16.488H12.2199C12.3735 16.488 12.5208 16.427 12.6295 16.3184C12.7381 16.2098 12.7991 16.0625 12.7991 15.9089C12.7991 15.7553 12.7381 15.608 12.6295 15.4994C12.5208 15.3908 12.3735 15.3298 12.2199 15.3298H10.5759C10.5798 15.2664 10.5759 15.2039 10.5813 15.1398C10.664 13.9699 10.9365 12.8301 11.3898 11.7537C11.8623 10.6554 12.5163 9.64437 13.3242 8.76298L14.0701 9.50815C14.1231 9.56506 14.1871 9.61069 14.2581 9.64235C14.3292 9.674 14.4059 9.69102 14.4836 9.6924C14.5614 9.69377 14.6386 9.67946 14.7107 9.65033C14.7829 9.62121 14.8484 9.57785 14.9034 9.52286C14.9584 9.46786 15.0017 9.40235 15.0308 9.33024C15.06 9.25813 15.0743 9.18088 15.0729 9.10312C15.0715 9.02536 15.0545 8.94867 15.0229 8.87763C14.9912 8.80658 14.9456 8.74265 14.8887 8.68963L14.1435 7.94368C16.0562 6.20083 18.2446 5.25335 20.6647 5.12979V6.51203C20.6647 6.66563 20.7257 6.81294 20.8343 6.92155C20.9429 7.03016 21.0902 7.09118 21.2438 7.09118C21.3974 7.09118 21.5448 7.03016 21.6534 6.92155C21.762 6.81294 21.823 6.66563 21.823 6.51203V5.15759C22.1759 5.19234 22.511 5.23559 22.8245 5.30045C24.8824 5.69582 26.8152 6.70044 28.3411 8.10662L27.9604 8.48654C27.9051 8.53999 27.861 8.60392 27.8307 8.67459C27.8004 8.74526 27.7845 8.82126 27.7838 8.89816C27.7832 8.97506 27.7979 9.05132 27.827 9.12248C27.8562 9.19364 27.8992 9.25828 27.9536 9.31263C28.008 9.36698 28.0727 9.40996 28.1439 9.43904C28.2151 9.46813 28.2914 9.48275 28.3683 9.48204C28.4452 9.48134 28.5211 9.46533 28.5918 9.43494C28.6624 9.40456 28.7263 9.36041 28.7797 9.30507L29.1481 8.9375C29.7099 9.5711 30.1917 10.2713 30.5828 11.0224C31.2708 12.3429 31.6508 13.8255 31.7372 15.3298H30.6446C30.491 15.3298 30.3437 15.3908 30.2351 15.4994C30.1264 15.608 30.0654 15.7553 30.0654 15.9089C30.0654 16.0625 30.1264 16.2098 30.2351 16.3184C30.3437 16.427 30.491 16.488 30.6446 16.488H31.7504C31.6677 18.3853 31.1156 20.2595 30.1056 21.8317C29.7704 22.3475 29.3735 22.8317 28.9419 23.2888L28.3766 22.7235C28.3236 22.6666 28.2597 22.621 28.1886 22.5894C28.1176 22.5577 28.0409 22.5407 27.9631 22.5393C27.8854 22.5379 27.8081 22.5522 27.736 22.5814C27.6639 22.6105 27.5984 22.6539 27.5434 22.7088C27.4884 22.7638 27.4451 22.8293 27.4159 22.9015C27.3868 22.9736 27.3725 23.0508 27.3739 23.1286C27.3752 23.2063 27.3923 23.283 27.4239 23.3541C27.4556 23.4251 27.5012 23.4891 27.5581 23.5421L28.1033 24.088C26.2006 25.7158 24.0531 26.5004 21.823 26.5776V25.6479C21.823 24.8811 20.6647 24.8811 20.6647 25.6479V26.5567C18.1659 26.3621 15.8539 25.2594 14.101 23.7011L15.8307 22.4463C15.9552 22.3561 16.0386 22.2202 16.0628 22.0684C16.087 21.9166 16.0499 21.7615 15.9597 21.6371C15.8695 21.5126 15.7335 21.4292 15.5818 21.405C15.43 21.3808 15.2748 21.4179 15.1504 21.5081L13.3219 22.834C13.3041 22.8471 13.2941 22.8672 13.2779 22.8818C13.1234 22.712 12.9667 22.5429 12.8246 22.3645C11.4516 20.6363 10.6941 18.6255 10.5782 16.488Z"></path>
                                              <path d="M7.14708 11.465C7.29279 11.5134 7.45176 11.5019 7.58903 11.4331C7.7263 11.3643 7.83065 11.2439 7.87912 11.0982C9.70537 5.6094 15.225 1.4349 21.0042 1.17313C26.6211 0.926026 32.3531 4.39165 34.784 9.47734L34.3253 9.7646C33.7338 10.1353 33.808 11.0102 34.445 11.2827C35.1037 11.5638 36.0489 12.1546 36.4852 12.3885C36.5572 12.4269 36.6364 12.4496 36.7178 12.4552C36.7991 12.4608 36.8807 12.4491 36.9573 12.421C37.0338 12.3928 37.1036 12.3488 37.1619 12.2919C37.2203 12.2349 37.266 12.1663 37.296 12.0905C37.6134 11.2874 37.5045 10.2503 37.5971 9.35302C37.6713 8.63873 36.896 8.15534 36.2898 8.53449L35.7717 8.85881C33.0898 3.3515 27.113 -0.281692 20.9509 0.0171489C14.6111 0.303634 8.78336 4.70979 6.77951 10.7329C6.73112 10.8787 6.74258 11.0376 6.81136 11.1749C6.88014 11.3122 7.00062 11.4165 7.14631 11.465H7.14708ZM35.1701 14.5337C35.0056 14.8959 35.0002 15.2951 35.1547 15.6302C35.4744 16.3244 36.5292 15.8426 36.2064 15.1453C36.1964 15.1221 36.1971 15.0711 36.2249 15.0109C36.3933 14.6356 37.1091 14.8704 37.1693 16.0974C37.2365 17.4742 36.5253 18.8595 35.401 19.5476C35.2774 19.6224 35.1862 19.7407 35.1454 19.8793C35.1045 20.0178 35.117 20.1667 35.1802 20.2966C35.2435 20.4265 35.353 20.528 35.4873 20.5813C35.6216 20.6346 35.7709 20.6358 35.906 20.5846C36.8964 20.2152 37.961 20.0889 39.0103 20.2163C39.1621 20.233 39.3145 20.1899 39.4351 20.096C39.5556 20.0021 39.6348 19.8649 39.6558 19.7136C39.6748 19.5612 39.6325 19.4076 39.5383 19.2864C39.444 19.1652 39.3055 19.0864 39.1531 19.0673C38.6074 18.9995 38.0559 18.991 37.5083 19.0418C38.072 18.1622 38.3778 17.0982 38.3269 16.041C38.1987 13.4387 35.8219 13.0866 35.1701 14.5337ZM40.6404 17.9275C41.1747 17.7005 41.8512 17.4511 42.5554 17.3453C42.506 17.9962 42.4319 18.6456 42.3199 19.2881C42.1863 20.0433 43.3284 20.2425 43.4604 19.4889C43.7461 17.8534 43.8411 16.1823 43.7407 14.5221C43.7256 14.373 43.6534 14.2356 43.5393 14.1386C43.4251 14.0416 43.2778 13.9925 43.1282 14.0017C42.9787 14.0109 42.8385 14.0776 42.737 14.1879C42.6356 14.2981 42.5807 14.4434 42.584 14.5932C42.6157 15.1175 42.6195 15.6426 42.6102 16.1669C42.041 16.2345 41.4815 16.3679 40.9431 16.5646L40.7794 13.9098C40.7299 13.1298 39.5763 13.2256 39.6226 13.9808L39.835 17.4302C39.841 17.5227 39.869 17.6123 39.9168 17.6917C39.9645 17.7711 40.0305 17.838 40.1094 17.8867C40.1882 17.9353 40.2775 17.9644 40.3699 17.9715C40.4623 17.9786 40.555 17.9635 40.6404 17.9275Z"></path>
                                            </g>
                                          </svg>