<svg xmlns="http://www.w3.org/2000/svg" width="50" height="50" viewBox="0 0 50 50">
                                            <path d="M8.72524 30.4167C8.63352 30.4167 8.54437 30.3864 8.4716 30.3306C8.39884 30.2747 8.34653 30.1964 8.32279 30.1079C8.29905 30.0193 8.30521 29.9253 8.34031 29.8406C8.3754 29.7558 8.43748 29.685 8.51691 29.6392L22.9377 21.3125C23.0312 21.2593 23.1416 21.2442 23.2459 21.2705C23.3501 21.2968 23.4402 21.3623 23.4973 21.4535C23.5543 21.5447 23.5739 21.6543 23.5519 21.7596C23.53 21.8649 23.4681 21.9576 23.3794 22.0183L20.2961 24.1017C20.364 24.0977 20.4318 24.1119 20.4926 24.1426C20.5533 24.1733 20.6048 24.2196 20.6419 24.2767C20.702 24.3611 20.7285 24.465 20.7162 24.5679C20.7039 24.6708 20.6536 24.7655 20.5752 24.8333L16.3011 28.5292C16.3243 28.5545 16.3444 28.5825 16.3611 28.6125C16.4163 28.7082 16.4313 28.8219 16.4027 28.9287C16.3741 29.0354 16.3043 29.1264 16.2086 29.1817L14.1952 30.3333C14.1056 30.384 14.0004 30.3996 13.8999 30.3772C13.7994 30.3549 13.7107 30.2961 13.651 30.2123C13.5913 30.1284 13.5647 30.0254 13.5764 29.9231C13.5881 29.8209 13.6373 29.7265 13.7144 29.6583L16.7144 27.0667L11.0311 30.3475C10.9377 30.3992 10.8281 30.4131 10.7248 30.3864C10.6214 30.3596 10.5323 30.2943 10.4758 30.2037C10.4193 30.1132 10.3996 30.0045 10.4209 29.8999C10.4422 29.7953 10.5028 29.7029 10.5902 29.6417L13.0486 27.9825L8.93691 30.3567C8.8731 30.3955 8.79993 30.4163 8.72524 30.4167ZM30.7361 22.0092C30.6514 22.0091 30.5687 21.9832 30.4991 21.9349C30.4295 21.8866 30.3763 21.8183 30.3465 21.739C30.3167 21.6597 30.3118 21.5732 30.3324 21.4911C30.353 21.4089 30.3982 21.335 30.4619 21.2792L30.5644 21.1892L30.3044 21.3383C30.2145 21.3895 30.1087 21.4053 30.0077 21.3828C29.9068 21.3602 29.8178 21.3009 29.7581 21.2164C29.6985 21.1319 29.6724 21.0282 29.6849 20.9255C29.6975 20.8228 29.7478 20.7285 29.8261 20.6608L30.1744 20.3642C30.0884 20.406 29.9907 20.4169 29.8976 20.3952C29.8045 20.3735 29.7217 20.3204 29.6631 20.2449C29.6045 20.1694 29.5736 20.076 29.5757 19.9805C29.5777 19.8849 29.6126 19.7929 29.6744 19.72L30.9969 18.1458L27.1969 20.34C27.1054 20.3926 26.9973 20.4084 26.8945 20.3843C26.7918 20.3603 26.702 20.2981 26.6432 20.2104C26.5845 20.1227 26.5613 20.016 26.5782 19.9118C26.5951 19.8077 26.6509 19.7138 26.7344 19.6492L26.9327 19.4967L25.4636 20.3425C25.4161 20.3727 25.3631 20.3929 25.3077 20.402C25.2522 20.4111 25.1955 20.409 25.1409 20.3956C25.0863 20.3822 25.035 20.3579 24.9901 20.3242C24.9451 20.2905 24.9074 20.248 24.8793 20.1994C24.8512 20.1507 24.8332 20.0969 24.8264 20.0411C24.8196 19.9853 24.8242 19.9288 24.8399 19.8748C24.8555 19.8208 24.8819 19.7706 24.9175 19.7271C24.9531 19.6836 24.9971 19.6477 25.0469 19.6217L31.9894 15.6125C32.0809 15.561 32.1885 15.546 32.2906 15.5704C32.3927 15.5948 32.4819 15.6568 32.5402 15.7441C32.5985 15.8314 32.6218 15.9375 32.6052 16.0412C32.5887 16.1449 32.5337 16.2385 32.4511 16.3033L32.2536 16.4558L32.6119 16.2492C32.6966 16.2009 32.7956 16.1838 32.8916 16.2009C32.9876 16.2181 33.0745 16.2684 33.1373 16.343C33.2 16.4176 33.2346 16.5119 33.235 16.6095C33.2354 16.707 33.2016 16.8015 33.1394 16.8767L31.8227 18.4525L33.6936 17.3692C33.7835 17.3181 33.8893 17.3022 33.9902 17.3248C34.0912 17.3473 34.1802 17.4066 34.2398 17.4911C34.2995 17.5756 34.3256 17.6793 34.3131 17.782C34.3005 17.8847 34.2502 17.979 34.1719 18.0467L33.8319 18.3367C33.9221 18.2893 34.0264 18.2766 34.1253 18.3009C34.2242 18.3253 34.3108 18.385 34.3686 18.4688C34.4265 18.5526 34.4517 18.6547 34.4394 18.7558C34.4271 18.8569 34.3782 18.95 34.3019 19.0175L32.4527 20.6383C32.4969 20.7325 32.5043 20.8397 32.4735 20.939C32.4427 21.0383 32.3758 21.1225 32.2861 21.175L30.9469 21.9492C30.8834 21.9881 30.8105 22.0088 30.7361 22.0092ZM30.1227 16.0075C30.031 16.0075 29.9419 15.9772 29.8691 15.9214C29.7963 15.8656 29.744 15.7873 29.7203 15.6987C29.6966 15.6101 29.7027 15.5161 29.7378 15.4314C29.7729 15.3467 29.835 15.2759 29.9144 15.23L30.8611 14.6842C30.9085 14.654 30.9615 14.6338 31.017 14.6247C31.0724 14.6155 31.1292 14.6177 31.1837 14.6311C31.2383 14.6445 31.2896 14.6687 31.3346 14.7025C31.3795 14.7362 31.4172 14.7786 31.4453 14.8273C31.4735 14.8759 31.4915 14.9298 31.4982 14.9856C31.505 15.0413 31.5004 15.0979 31.4848 15.1519C31.4691 15.2059 31.4427 15.2561 31.4071 15.2996C31.3715 15.3431 31.3275 15.379 31.2777 15.405L30.3311 15.9517C30.2678 15.9885 30.1959 16.0077 30.1227 16.0075Z"></path>
                                            <path d="M15.0714 25.5218C14.9831 25.5219 14.897 25.4939 14.8256 25.4419C14.7542 25.3899 14.7012 25.3165 14.6742 25.2324C14.6472 25.1483 14.6477 25.0578 14.6755 24.9739C14.7033 24.8901 14.757 24.8173 14.8289 24.766L19.6031 21.3576L19.1031 21.6468C19.0134 21.6982 18.9079 21.7144 18.8069 21.6924C18.7059 21.6703 18.6167 21.6115 18.5567 21.5273C18.4967 21.4432 18.47 21.3398 18.482 21.2371C18.494 21.1344 18.5437 21.0399 18.6214 20.9718L22.2148 17.841L22.2056 17.826C22.1504 17.7303 22.1354 17.6165 22.164 17.5098C22.1926 17.4031 22.2624 17.312 22.3581 17.2568L23.9606 16.3318C24.0502 16.2813 24.1552 16.2657 24.2555 16.288C24.3559 16.3103 24.4445 16.3689 24.5042 16.4526C24.564 16.5362 24.5907 16.639 24.5793 16.7411C24.5678 16.8433 24.519 16.9376 24.4423 17.006L22.4148 18.7726L26.6648 16.3201C26.7575 16.2657 26.8677 16.2492 26.9723 16.2742C27.0768 16.2991 27.1678 16.3635 27.226 16.4539C27.2842 16.5443 27.3052 16.6537 27.2846 16.7592C27.2641 16.8647 27.2035 16.9582 27.1156 17.0201L22.3431 20.4276L29.4781 16.3076C29.5738 16.2532 29.687 16.2389 29.7932 16.2677C29.8994 16.2966 29.9899 16.3662 30.0449 16.4615C30.0999 16.5568 30.115 16.67 30.0869 16.7763C30.0587 16.8827 29.9897 16.9736 29.8948 17.0293L15.2798 25.466C15.2164 25.5025 15.1446 25.5218 15.0714 25.5218ZM7.25894 32.0385C7.20221 32.0388 7.14604 32.0273 7.09397 32.0048C7.0419 31.9823 6.99507 31.9492 6.95644 31.9076C6.89213 31.8395 6.85263 31.7518 6.84431 31.6585C6.836 31.5652 6.85935 31.4718 6.91061 31.3935L6.99394 31.2693L6.71144 31.436C6.61972 31.4882 6.5116 31.5036 6.40892 31.4792C6.30624 31.4548 6.21665 31.3923 6.15825 31.3044C6.09985 31.2165 6.07699 31.1097 6.09429 31.0056C6.11159 30.9014 6.16775 30.8078 6.25144 30.7435L6.69394 30.4101L6.06227 30.7743C5.97349 30.8274 5.86812 30.8456 5.76667 30.8253C5.66521 30.8051 5.57493 30.7478 5.51338 30.6646C5.45184 30.5814 5.42344 30.4783 5.43371 30.3754C5.44398 30.2724 5.49218 30.177 5.56894 30.1076L6.91477 28.8335L5.16477 29.8451C5.0779 29.8947 4.97609 29.9114 4.87793 29.8921C4.77978 29.8728 4.69183 29.8189 4.63016 29.7402C4.56849 29.6614 4.53721 29.5631 4.54203 29.4632C4.54686 29.3632 4.58747 29.2684 4.65644 29.196L5.96227 27.8401L4.42561 28.7285C4.33776 28.7791 4.23446 28.796 4.13505 28.776C4.03565 28.7559 3.94697 28.7003 3.88563 28.6195C3.8243 28.5388 3.79452 28.4384 3.80188 28.3373C3.80924 28.2361 3.85323 28.1412 3.92561 28.0701L5.93311 26.111C5.91818 26.0937 5.90505 26.075 5.89394 26.0551C5.83869 25.9594 5.82372 25.8457 5.85232 25.739C5.88092 25.6322 5.95074 25.5412 6.04644 25.486L7.38394 24.7135C7.47179 24.6628 7.57509 24.6459 7.6745 24.666C7.7739 24.686 7.86258 24.7416 7.92392 24.8224C7.98525 24.9031 8.01503 25.0035 8.00767 25.1046C8.00031 25.2058 7.95632 25.3008 7.88394 25.3718L6.88394 26.3443L8.09644 25.6443C8.18341 25.5941 8.28559 25.577 8.38418 25.5961C8.48277 25.6152 8.57112 25.6693 8.63299 25.7485C8.69486 25.8276 8.72607 25.9264 8.72089 26.0266C8.7157 26.1269 8.67447 26.222 8.60477 26.2943L7.30144 27.651L9.59144 26.3335C9.68022 26.2803 9.78559 26.2621 9.88705 26.2824C9.98851 26.3027 10.0788 26.36 10.1403 26.4431C10.2019 26.5263 10.2303 26.6294 10.22 26.7324C10.2097 26.8353 10.1615 26.9308 10.0848 27.0001L8.73894 28.2676L12.0923 26.3326C12.184 26.2815 12.2916 26.2668 12.3936 26.2916C12.4956 26.3163 12.5846 26.3787 12.6426 26.4662C12.7006 26.5537 12.7235 26.6599 12.7066 26.7635C12.6897 26.8672 12.6343 26.9606 12.5514 27.0251L8.70894 29.931C8.72368 29.9872 8.72647 30.046 8.71714 30.1034C8.70781 30.1608 8.68657 30.2156 8.65477 30.2643L8.36894 30.6976C8.45219 30.7324 8.52142 30.794 8.56561 30.8726C8.62093 30.9682 8.63603 31.0819 8.60759 31.1886C8.57915 31.2953 8.5095 31.3864 8.41394 31.4418L7.46728 31.9876C7.40361 32.0229 7.33168 32.0404 7.25894 32.0385Z"></path>
                                            <path d="M30.1237 26.0068C30.032 26.0068 29.9428 25.9765 29.87 25.9207C29.7973 25.8649 29.745 25.7866 29.7212 25.698C29.6975 25.6094 29.7036 25.5154 29.7387 25.4307C29.7738 25.346 29.8359 25.2752 29.9153 25.2293L30.8587 24.6852C30.9061 24.655 30.9591 24.6348 31.0146 24.6256C31.07 24.6165 31.1268 24.6187 31.1813 24.6321C31.2359 24.6455 31.2872 24.6697 31.3322 24.7034C31.3772 24.7372 31.4148 24.7796 31.4429 24.8283C31.4711 24.8769 31.4891 24.9308 31.4958 24.9865C31.5026 25.0423 31.498 25.0989 31.4824 25.1529C31.4667 25.2068 31.4403 25.2571 31.4047 25.3006C31.3692 25.3441 31.3251 25.3799 31.2753 25.406L30.332 25.951C30.2688 25.9878 30.1969 26.0071 30.1237 26.0068Z"></path>
                                            <path d="M30.4407 31.9166C30.3589 31.9166 30.279 31.8925 30.2108 31.8474C30.1426 31.8023 30.0892 31.7381 30.0572 31.6629C30.0252 31.5877 30.0161 31.5047 30.0309 31.4243C30.0458 31.3439 30.0839 31.2696 30.1407 31.2107L31.6182 29.6766L30.2123 30.4882C30.1253 30.5385 30.023 30.5556 29.9243 30.5363C29.8257 30.5171 29.7373 30.4628 29.6755 30.3836C29.6137 30.3043 29.5826 30.2054 29.588 30.105C29.5934 30.0046 29.6349 29.9096 29.7048 29.8374L30.7232 28.7932L28.0457 30.3332C27.9559 30.384 27.8505 30.3997 27.7499 30.3773C27.6493 30.3549 27.5605 30.2959 27.5008 30.2119C27.4411 30.1278 27.4147 30.0246 27.4267 29.9222C27.4386 29.8198 27.4882 29.7254 27.5657 29.6574L28.699 28.6807L25.8323 30.3332C25.7474 30.3825 25.6478 30.4001 25.5511 30.383C25.4544 30.366 25.3668 30.3153 25.3038 30.2399C25.2408 30.1646 25.2065 30.0694 25.2068 29.9713C25.2072 29.8731 25.2422 29.7781 25.3057 29.7032L26.5557 28.2316L23.4632 30.0166C23.3771 30.0655 23.2763 30.0822 23.1791 30.0636C23.0818 30.045 22.9943 29.9924 22.9323 29.9152C22.8703 29.8379 22.8378 29.7411 22.8408 29.6421C22.8437 29.5431 22.8818 29.4484 22.9482 29.3749L23.8398 28.4041L22.5282 29.1666C22.4447 29.2143 22.3474 29.2317 22.2525 29.2159C22.1577 29.2 22.0713 29.1518 22.008 29.0795C21.9446 29.0073 21.9082 28.9153 21.9049 28.8192C21.9016 28.7231 21.9316 28.6289 21.9898 28.5524L22.7315 27.5849L21.599 28.2391C21.5141 28.2878 21.4148 28.3051 21.3184 28.288C21.2221 28.2708 21.1348 28.2203 21.072 28.1452C21.0092 28.0701 20.9748 27.9754 20.9749 27.8775C20.9749 27.7796 21.0094 27.6849 21.0723 27.6099L21.6623 26.9099L20.779 27.4199C20.6935 27.4684 20.5936 27.4851 20.4969 27.4671C20.4003 27.449 20.3131 27.3974 20.2509 27.3213C20.1886 27.2452 20.1553 27.1495 20.1568 27.0512C20.1583 26.9529 20.1945 26.8583 20.259 26.7841L20.7432 26.2357L20.014 26.6524C19.9266 26.7004 19.8248 26.7155 19.7272 26.6949C19.6297 26.6743 19.5427 26.6193 19.4822 26.5401C19.4216 26.4608 19.3916 26.3624 19.3974 26.2628C19.4033 26.1633 19.4446 26.0691 19.514 25.9974L19.6023 25.9099L19.3932 26.0299C19.3087 26.0788 19.2097 26.0966 19.1135 26.08C19.0173 26.0634 18.93 26.0135 18.8668 25.9391C18.8036 25.8647 18.7685 25.7704 18.7677 25.6728C18.7669 25.5752 18.8004 25.4804 18.8623 25.4049L19.5073 24.6182L18.5382 25.1774C18.4535 25.2262 18.3543 25.2437 18.258 25.2267C18.1617 25.2098 18.0744 25.1595 18.0114 25.0847C17.9485 25.01 17.9138 24.9154 17.9135 24.8176C17.9132 24.7198 17.9473 24.6251 18.0098 24.5499L18.6223 23.8174L17.7057 24.3457C17.6251 24.3932 17.5308 24.4117 17.4382 24.3984C17.3457 24.3851 17.2604 24.3406 17.1965 24.2724C17.132 24.2049 17.0919 24.1177 17.0829 24.0248C17.0738 23.9319 17.0962 23.8386 17.1465 23.7599L18.0373 22.3741L16.5757 23.2174C16.4899 23.2664 16.3895 23.2833 16.2924 23.2652C16.1953 23.247 16.1078 23.1949 16.0456 23.1183C15.9833 23.0416 15.9503 22.9453 15.9525 22.8465C15.9546 22.7477 15.9918 22.653 16.0573 22.5791L16.5132 22.0691L15.8232 22.4674C15.7422 22.514 15.6478 22.5319 15.5554 22.5184C15.4629 22.5049 15.3777 22.4607 15.3133 22.393C15.249 22.3252 15.2093 22.2377 15.2007 22.1447C15.1921 22.0516 15.2149 21.9584 15.2657 21.8799L16.1498 20.5216L14.7073 21.3549C14.6246 21.4028 14.5279 21.4208 14.4334 21.4058C14.339 21.3909 14.2525 21.3439 14.1886 21.2728C14.1247 21.2016 14.0872 21.1107 14.0825 21.0152C14.0777 20.9197 14.1059 20.8254 14.1623 20.7482L14.9632 19.6507L13.7198 20.3682C13.6383 20.4154 13.5432 20.4334 13.45 20.4196C13.3569 20.4057 13.2712 20.3607 13.2069 20.2919C13.1426 20.223 13.1036 20.1345 13.0961 20.0406C13.0886 19.9467 13.1131 19.8531 13.1657 19.7749L14.0307 18.4891L10.8073 20.3491C10.7175 20.4008 10.6115 20.4172 10.5102 20.395C10.4089 20.3729 10.3195 20.3137 10.2595 20.2291C10.1995 20.1445 10.1732 20.0406 10.1858 19.9376C10.1983 19.8347 10.2488 19.7401 10.3273 19.6724L10.744 19.3166L8.93901 20.3582C8.84336 20.4126 8.73009 20.427 8.6239 20.3981C8.51772 20.3693 8.42725 20.2997 8.37223 20.2044C8.31722 20.1091 8.30212 19.9959 8.33025 19.8895C8.35837 19.7832 8.42743 19.6922 8.52235 19.6366L14.1748 16.3732C14.2647 16.3215 14.3707 16.3051 14.472 16.3273C14.5733 16.3495 14.6627 16.4086 14.7227 16.4932C14.7827 16.5778 14.809 16.6817 14.7964 16.7847C14.7839 16.8876 14.7334 16.9822 14.6548 17.0499L14.2382 17.4066L15.169 16.8691C15.2506 16.822 15.3457 16.8039 15.4388 16.8177C15.532 16.8316 15.6177 16.8766 15.682 16.9455C15.7462 17.0143 15.7853 17.1029 15.7928 17.1967C15.8003 17.2906 15.7757 17.3843 15.7232 17.4624L14.8582 18.7499L16.2473 17.9482C16.3301 17.9003 16.4268 17.8824 16.5213 17.8973C16.6157 17.9123 16.7022 17.9593 16.7661 18.0304C16.83 18.1015 16.8675 18.1925 16.8722 18.288C16.877 18.3835 16.8488 18.4777 16.7923 18.5549L15.9915 19.6532L17.2365 18.9349C17.3171 18.8898 17.4105 18.8728 17.5018 18.8865C17.5932 18.9002 17.6774 18.9438 17.7412 19.0106C17.805 19.0774 17.8449 19.1635 17.8544 19.2554C17.864 19.3473 17.8427 19.4398 17.794 19.5182L16.9098 20.8766L18.3515 20.0432C18.4373 19.9937 18.5379 19.9764 18.6354 19.9943C18.7328 20.0122 18.8206 20.0643 18.8831 20.1412C18.9456 20.218 18.9787 20.3146 18.9764 20.4137C18.9741 20.5127 18.9367 20.6077 18.8707 20.6816L18.4148 21.1907L19.1032 20.7932C19.1838 20.7458 19.2781 20.7273 19.3706 20.7406C19.4632 20.7539 19.5484 20.7984 19.6123 20.8666C19.6769 20.934 19.7169 21.0212 19.726 21.1142C19.7351 21.2071 19.7126 21.3004 19.6623 21.3791L18.7715 22.7657L20.2332 21.9224C20.3179 21.8736 20.4171 21.8561 20.5134 21.8731C20.6097 21.89 20.697 21.9403 20.7599 22.0151C20.8229 22.0899 20.8576 22.1844 20.8579 22.2822C20.8581 22.38 20.824 22.4747 20.7615 22.5499L20.1507 23.2816L21.0673 22.7532C21.1518 22.7043 21.2508 22.6866 21.347 22.7032C21.4432 22.7198 21.5306 22.7696 21.5938 22.8441C21.657 22.9185 21.692 23.0127 21.6928 23.1104C21.6937 23.208 21.6601 23.3028 21.5982 23.3782L20.9523 24.1666L21.9215 23.6074C22.0089 23.5594 22.1107 23.5443 22.2083 23.5649C22.3059 23.5855 22.3928 23.6405 22.4534 23.7198C22.5139 23.799 22.544 23.8974 22.5381 23.997C22.5323 24.0966 22.4909 24.1907 22.4215 24.2624L22.334 24.3507L22.5432 24.2299C22.6288 24.1809 22.729 24.1638 22.826 24.1818C22.923 24.1997 23.0105 24.2515 23.0729 24.3279C23.1353 24.4043 23.1686 24.5004 23.1668 24.599C23.165 24.6977 23.1283 24.7925 23.0632 24.8666L22.5823 25.4166L23.3107 24.9999C23.3955 24.9517 23.4947 24.9348 23.5907 24.9521C23.6868 24.9695 23.7737 25.0201 23.8363 25.095C23.8989 25.1699 23.9332 25.2644 23.9332 25.362C23.9333 25.4596 23.899 25.5541 23.8365 25.6291L23.2465 26.3291L24.1307 25.8191C24.2139 25.7705 24.3113 25.7523 24.4064 25.7675C24.5015 25.7827 24.5884 25.8304 24.6523 25.9024C24.7161 25.9749 24.7528 26.0673 24.756 26.1639C24.7591 26.2604 24.7287 26.355 24.6698 26.4316L23.9265 27.3999L25.7807 26.3299C25.8668 26.281 25.9675 26.2643 26.0648 26.2829C26.1621 26.3014 26.2496 26.3541 26.3116 26.4313C26.3736 26.5086 26.406 26.6054 26.4031 26.7044C26.4002 26.8034 26.3621 26.8981 26.2957 26.9716L25.404 27.9424L28.2182 26.3174C28.3031 26.2682 28.4028 26.2506 28.4995 26.2676C28.5962 26.2847 28.6837 26.3354 28.7467 26.4107C28.8097 26.486 28.844 26.5812 28.8437 26.6794C28.8434 26.7776 28.8083 26.8725 28.7448 26.9474L27.499 28.4166L32.124 25.7499C32.2138 25.6991 32.3191 25.6834 32.4198 25.7059C32.5204 25.7283 32.6092 25.7872 32.6689 25.8713C32.7286 25.9554 32.755 26.0586 32.743 26.161C32.7311 26.2634 32.6815 26.3577 32.604 26.4257L31.4715 27.4016L32.9223 26.5682C33.0094 26.5186 33.1114 26.502 33.2097 26.5215C33.308 26.5409 33.396 26.5952 33.4575 26.6742C33.5191 26.7533 33.5501 26.8519 33.5448 26.952C33.5396 27.052 33.4985 27.1469 33.429 27.2191L32.4073 28.2574L33.7565 27.4791C33.8434 27.4295 33.9452 27.4128 34.0434 27.4321C34.1415 27.4514 34.2295 27.5053 34.2911 27.5841C34.3528 27.6628 34.3841 27.7611 34.3793 27.861C34.3744 27.961 34.3338 28.0558 34.2648 28.1282L32.654 29.8007C32.7288 29.7942 32.8038 29.8107 32.8691 29.8479C32.9343 29.8851 32.9866 29.9414 33.019 30.0091C33.074 30.1047 33.0888 30.2182 33.0602 30.3248C33.0317 30.4313 32.962 30.5222 32.8665 30.5774L30.649 31.8574C30.5862 31.8955 30.5142 31.916 30.4407 31.9166Z"></path>
                                            <path d="M6.86972 21.8283C6.78227 21.8283 6.69703 21.8008 6.62609 21.7496C6.55515 21.6985 6.50209 21.6264 6.47443 21.5434C6.44678 21.4604 6.44593 21.3709 6.472 21.2874C6.49808 21.2039 6.54976 21.1308 6.61972 21.0783L7.38222 20.505L6.37472 21.0883C6.28503 21.1405 6.17907 21.1574 6.07759 21.1356C5.9761 21.1139 5.8864 21.055 5.82604 20.9706C5.76568 20.8861 5.73901 20.7822 5.75125 20.6791C5.76349 20.576 5.81376 20.4813 5.89222 20.4133L7.29222 19.1916L5.51972 20.2141C5.43393 20.2637 5.3333 20.281 5.23588 20.2631C5.13846 20.2451 5.05062 20.1931 4.98811 20.1162C4.92561 20.0394 4.89253 19.9427 4.89481 19.8437C4.89709 19.7447 4.93458 19.6497 5.00055 19.5758L6.28222 18.1425L4.55139 19.1425C4.46584 19.192 4.36546 19.2096 4.26817 19.192C4.17089 19.1743 4.08304 19.1227 4.02032 19.0463C3.95761 18.9698 3.92412 18.8736 3.92584 18.7747C3.92757 18.6759 3.96438 18.5808 4.02972 18.5066L6.04805 16.2066C5.98532 16.1706 5.93328 16.1185 5.89722 16.0558C5.84197 15.9601 5.827 15.8464 5.85559 15.7396C5.88419 15.6329 5.95402 15.5419 6.04972 15.4866L7.38722 14.7141C7.47276 14.6646 7.57314 14.647 7.67043 14.6646C7.76772 14.6823 7.85557 14.7339 7.91828 14.8103C7.98099 14.8868 8.01448 14.983 8.01276 15.0819C8.01104 15.1807 7.97422 15.2758 7.90889 15.35L6.32555 17.1583L8.12139 16.1216C8.20708 16.0726 8.30739 16.0556 8.40444 16.0737C8.50149 16.0917 8.58898 16.1437 8.65131 16.2202C8.71365 16.2968 8.74678 16.393 8.74481 16.4916C8.74284 16.5903 8.70589 16.6851 8.64055 16.7591L7.35555 18.1925L10.5839 16.3333C10.6735 16.2821 10.7789 16.2659 10.8797 16.2879C10.9805 16.3099 11.0696 16.3686 11.1296 16.4525C11.1897 16.5364 11.2165 16.6396 11.2048 16.7421C11.1931 16.8447 11.1438 16.9392 11.0664 17.0075L9.66722 18.2258L12.9506 16.3308C13.0424 16.2793 13.1502 16.2644 13.2526 16.2892C13.3549 16.314 13.444 16.3766 13.5021 16.4644C13.5601 16.5522 13.5828 16.6587 13.5655 16.7626C13.5482 16.8664 13.4923 16.9599 13.4089 17.0241L8.72722 20.54C8.73487 20.6196 8.71945 20.6997 8.6828 20.7708C8.64616 20.8418 8.58983 20.9009 8.52055 20.9408L7.08055 21.7741C7.01645 21.8109 6.9436 21.8296 6.86972 21.8283Z"></path>
                                            <path d="M30.2369 39.226C30.2335 39.2501 30.2335 39.2745 30.2369 39.2985C30.2358 39.7063 30.2704 40.1134 30.3402 40.5152C30.6729 42.1554 31.5644 43.6294 32.8628 44.6854C34.1611 45.7415 35.7858 46.3143 37.4594 46.306C38.9346 46.2922 40.3727 45.8415 41.592 45.0109C42.8114 44.1804 43.7572 43.0071 44.3102 41.6393C44.611 40.8404 44.7622 39.993 44.756 39.1393C44.7751 39.0851 44.7733 39.0257 44.751 38.9727C44.7325 37.9461 44.4913 36.9357 44.0441 36.0115C43.597 35.0872 42.9545 34.271 42.161 33.6193C40.9887 32.6965 39.5655 32.1484 38.077 32.0466C36.5885 31.9448 35.1039 32.2939 33.8169 33.0485C32.7395 33.6836 31.844 34.5858 31.2169 35.6679C30.5898 36.75 30.2523 37.9754 30.2369 39.226ZM41.5127 34.6177L40.6285 35.5002L40.4819 35.6477C40.4673 35.66 40.4555 35.6752 40.447 35.6923C40.4385 35.7093 40.4336 35.728 40.4326 35.747C40.4316 35.766 40.4345 35.7851 40.4411 35.803C40.4477 35.8208 40.4579 35.8372 40.471 35.851C40.5655 35.9098 40.6772 35.9347 40.7877 35.9218C41.0836 35.9193 41.3687 35.8098 41.5902 35.6135L42.0427 35.161C42.8994 36.1849 43.4138 37.4514 43.5135 38.7827H42.7244C42.5614 38.7778 42.3993 38.8085 42.2494 38.8727C42.1199 38.924 42.0092 39.0135 41.9319 39.1293C41.9033 39.1719 41.889 39.2224 41.891 39.2736C41.8929 39.3248 41.911 39.3741 41.9427 39.4143C42.0316 39.5016 42.1515 39.5501 42.276 39.5493H43.526C43.5187 39.8005 43.4962 40.0509 43.4585 40.2993C43.2896 41.3203 42.8589 42.2802 42.2085 43.0852L41.7502 42.6252L41.6027 42.4785C41.5086 42.4169 41.3963 42.3892 41.2844 42.4002C41.1224 42.4043 40.9626 42.4379 40.8127 42.4993C40.6858 42.54 40.5721 42.614 40.4835 42.7135C40.436 42.7818 40.406 42.8568 40.4752 42.926L41.4385 43.8893C40.499 44.6955 39.3364 45.1969 38.1052 45.3268V44.0052C38.1052 43.9143 37.9319 43.8643 37.8752 43.8535C37.725 43.8306 37.5716 43.8414 37.426 43.8852C37.2782 43.9194 37.14 43.9866 37.0219 44.0818L36.9427 44.1652C36.9228 44.1875 36.9084 44.2143 36.9007 44.2432C36.893 44.2722 36.8923 44.3025 36.8985 44.3318V45.3027C35.6201 45.1394 34.4243 44.5815 33.4777 43.7068L34.3685 42.816L34.5152 42.6693C34.566 42.6185 34.5985 42.5493 34.5335 42.4952C34.4376 42.4477 34.3293 42.4311 34.2235 42.4477C34.0624 42.4593 33.9037 42.4944 33.7527 42.5518C33.6298 42.5921 33.5163 42.657 33.4194 42.7427L32.9794 43.1827C32.4756 42.6094 32.083 41.9473 31.8219 41.2302C31.6359 40.6923 31.5237 40.1316 31.4885 39.5635H32.2827C32.4453 39.569 32.6071 39.5388 32.7569 39.4752C32.887 39.423 32.9979 39.3319 33.0744 39.2143C33.1024 39.1702 33.1161 39.1186 33.1138 39.0664C33.1114 39.0142 33.093 38.964 33.061 38.9227C33.0173 38.8787 32.9654 38.8438 32.9082 38.8199C32.851 38.796 32.7897 38.7837 32.7277 38.7835H31.4827C31.5464 37.5071 31.9998 36.2809 32.7819 35.2702L33.2644 35.7527L33.411 35.9002C33.5006 35.9954 33.6218 36.0546 33.7519 36.0668C33.9151 36.083 34.0797 36.0542 34.2277 35.9835C34.3603 35.9279 34.4704 35.8293 34.5402 35.7035C34.5682 35.6533 34.5811 35.596 34.5773 35.5386C34.5734 35.4812 34.553 35.4262 34.5185 35.3802L33.5702 34.4318C33.5969 34.4093 33.6177 34.3818 33.6444 34.3593C34.5675 33.5965 35.7012 33.1331 36.8944 33.031V34.3393C36.8944 34.4085 37.081 34.4152 37.1044 34.416C37.2534 34.4167 37.4016 34.3954 37.5444 34.3527C37.6911 34.3191 37.8317 34.2629 37.961 34.186C38.0235 34.1452 38.1044 34.1027 38.1044 34.0152V33.0327C38.9927 33.127 39.8477 33.4229 40.6044 33.8977C40.9288 34.109 41.2329 34.3501 41.5127 34.6177Z"></path>
                                            <path d="M0.228029 27.4867V34.3059C0.105836 35.4103 0.148808 36.5267 0.355529 37.6184C0.991363 39.5292 2.89553 39.4209 4.5072 39.4209H26.9147C26.9336 41.2282 27.4295 42.9985 28.3522 44.5526C29.5692 46.5089 31.386 48.0194 33.5316 48.8589C35.6772 49.6983 38.0366 49.8217 40.2581 49.2106C42.4795 48.5995 44.4439 47.2866 45.8583 45.4679C47.2727 43.6492 48.0612 41.4219 48.1064 39.1184C48.1047 36.4314 47.0612 33.8496 45.1954 31.916C43.3295 29.9824 40.7866 28.8476 38.1014 28.7501V17.3334C38.1014 13.1984 38.2739 9.02341 38.1014 4.89175C38.018 2.94841 36.4614 2.24091 34.768 2.24091H32.2789V0.795913C32.2737 0.728469 32.2544 0.66287 32.2222 0.603416C32.1899 0.543963 32.1455 0.491996 32.0917 0.450924C32.038 0.409852 31.9762 0.380601 31.9103 0.365089C31.8445 0.349576 31.7761 0.348153 31.7097 0.360913C31.4597 0.384246 31.0505 0.558413 31.0505 0.870913V2.25008H27.2689V0.760913C27.2689 0.495079 26.958 0.457579 26.7439 0.487579C26.5819 0.505258 26.4259 0.558775 26.2872 0.644246C26.2039 0.698413 26.0605 0.796746 26.0605 0.905913V2.25008H22.268V0.671746C22.268 0.602579 22.0814 0.595079 22.058 0.594246C21.9088 0.593599 21.7602 0.614939 21.6172 0.657579C21.4764 0.696746 21.0614 0.794246 21.0614 0.990913V2.25008H17.268V0.671746C17.268 0.577579 17.0955 0.520913 17.0347 0.505079C16.8847 0.478849 16.7306 0.48798 16.5847 0.531746C16.3605 0.597579 16.0614 0.722579 16.0614 0.991746V2.25008H12.2739V0.778413C12.2739 0.493413 11.9755 0.394246 11.7272 0.423413C11.5122 0.448413 11.0555 0.598413 11.0555 0.888413V2.25008H7.2772V0.790079C7.27122 0.724608 7.25134 0.661168 7.21886 0.604003C7.18639 0.546839 7.14209 0.497269 7.08891 0.45861C7.03574 0.419951 6.97492 0.393095 6.91052 0.37984C6.84613 0.366584 6.77965 0.367234 6.71553 0.381746C6.4772 0.405913 6.04886 0.571746 6.04886 0.876746V2.24258C5.13775 2.20172 4.22512 2.2084 3.3147 2.26258C2.57862 2.28035 1.87117 2.55128 1.31151 3.02973C0.751861 3.50817 0.374215 4.16489 0.242196 4.88925C0.220815 5.20906 0.216086 5.52977 0.228029 5.85008V27.4867ZM3.99803 38.9167C2.1997 38.8809 1.4347 37.5692 1.4347 35.9484V15.3492C1.4347 13.1234 1.3847 10.8859 1.38053 8.65258H36.8947V28.7734C35.9752 28.8379 35.0673 29.017 34.1922 29.3067C34.3823 29.1094 34.5419 28.8846 34.6655 28.6401C35.1164 27.6742 33.7264 26.7126 33.1514 26.1259C32.5055 25.4659 31.9714 24.6359 30.9422 24.7842C30.733 24.7879 30.5267 24.8335 30.3355 24.9185C30.1442 25.0034 29.972 25.1258 29.829 25.2785C29.686 25.4312 29.5751 25.6111 29.503 25.8075C29.4308 26.0039 29.3988 26.2128 29.4089 26.4217H26.053C25.8282 26.4411 25.6022 26.4425 25.3772 26.4259C25.3633 26.3989 25.344 26.3751 25.3205 26.3559C25.0005 26.0484 24.6922 25.7284 24.3789 25.4151L22.158 23.1959L25.1114 20.2426H29.393C29.3855 20.7359 29.328 21.2867 29.7405 21.6409C30.0241 21.8152 30.3498 21.9089 30.6826 21.9122C31.0154 21.9154 31.3428 21.828 31.6297 21.6592C32.0007 21.4409 32.3302 21.1588 32.603 20.8259L33.9364 19.4626C34.2868 19.1921 34.5613 18.8356 34.733 18.4276C34.863 17.8842 34.533 17.5384 34.1897 17.1876L32.8497 15.8176C32.591 15.5048 32.303 15.2174 31.9897 14.9592C31.6603 14.8002 31.2937 14.7345 30.9296 14.7693C30.5655 14.8042 30.2179 14.9382 29.9247 15.1567C29.7318 15.3016 29.5808 15.4952 29.4874 15.7176C29.394 15.9401 29.3614 16.1834 29.393 16.4226H24.9889C24.0603 16.3447 23.1382 16.634 22.4205 17.2284C21.7897 17.8201 21.1939 18.4551 20.5822 19.0667L19.3039 20.3459L16.9555 18.0001C16.2172 17.2617 15.6272 16.4717 14.4955 16.4234C12.9122 16.3559 11.3039 16.4234 9.7147 16.4234C9.44763 16.4451 9.17926 16.4451 8.9122 16.4234H8.90636C8.94476 16.2718 8.95437 16.1144 8.9347 15.9592C8.9022 15.0292 8.25636 14.6551 7.37803 14.8001C6.0322 15.0226 4.9072 16.6134 4.0447 17.5584C3.91326 17.6631 3.80614 17.7951 3.73074 17.9452C3.65533 18.0954 3.61345 18.2601 3.60798 18.428C3.60251 18.596 3.63359 18.7631 3.69907 18.9178C3.76454 19.0726 3.86285 19.2112 3.9872 19.3242C4.59886 20.0076 5.27553 20.6417 5.91636 21.2967C6.15136 21.5788 6.47238 21.7759 6.83018 21.8579C7.18798 21.94 7.56281 21.9024 7.8972 21.7509C8.21791 21.6596 8.49637 21.4586 8.684 21.1829C8.87164 20.9072 8.95653 20.5744 8.92386 20.2426H12.198C12.4105 20.2426 12.623 20.2476 12.8355 20.2426C12.877 20.2412 12.9186 20.2434 12.9597 20.2492C13.3169 20.5542 13.6478 20.8887 13.9489 21.2492L16.1522 23.4509L13.2247 26.3784H8.9372C8.98488 26.1383 8.97804 25.8905 8.91717 25.6534C8.85631 25.4163 8.74297 25.1959 8.58553 25.0084C8.3062 24.8212 7.97948 24.717 7.64331 24.708C7.30714 24.699 6.97531 24.7855 6.68636 24.9576C6.32062 25.1892 5.99404 25.4775 5.71886 25.8117L4.38553 27.1751C4.03234 27.4473 3.75866 27.8094 3.59303 28.2234C3.46303 28.7767 3.79303 29.1342 4.14386 29.4934L5.48386 30.8634C5.74457 31.1744 6.03237 31.4616 6.34386 31.7218C6.67209 31.8987 7.04507 31.9753 7.41648 31.9422C7.78789 31.909 8.14137 31.7674 8.43303 31.5351C8.61468 31.3853 8.75598 31.1925 8.84404 30.9742C8.9321 30.7559 8.96412 30.519 8.9372 30.2851H11.2897C12.4136 30.3905 13.5463 30.355 14.6614 30.1792C15.7864 29.8767 16.6072 28.7726 17.3989 27.9809L19.0439 26.3359L21.3772 28.6642C21.7205 29.0076 22.0497 29.3917 22.4205 29.7076C23.1639 30.3384 24.0247 30.2409 24.9322 30.2409H28.9147C29.0811 30.2283 29.2481 30.2269 29.4147 30.2367C29.4002 30.3325 29.3921 30.4291 29.3905 30.5259C29.3259 30.7824 29.3581 31.0538 29.4812 31.288C29.6042 31.5222 29.8093 31.7027 30.0572 31.7951C29.8264 32.0184 29.603 32.2492 29.3905 32.4951C27.8641 34.2925 26.9927 36.5547 26.9189 38.9118C19.2839 38.9276 11.633 39.0643 3.99803 38.9167ZM30.818 31.1334C30.6117 30.7352 30.5359 30.2821 30.6014 29.8384C30.6014 29.7684 30.4155 29.7551 30.3905 29.7551C28.5764 29.7551 26.7464 29.8334 24.9347 29.7551C23.563 29.6959 22.728 28.4718 21.8155 27.5609L19.7522 25.5001C19.747 25.4932 19.7408 25.487 19.7339 25.4817L16.8647 22.6151L14.8647 20.6151C14.6447 20.3959 14.3347 19.9326 14.0464 19.7984C13.7966 19.7358 13.537 19.7224 13.2822 19.7592H8.72386C8.51053 19.7592 7.72386 19.8517 7.72386 20.1642C7.72386 20.3667 7.74053 20.5759 7.72386 20.7776C7.6922 21.1559 7.7072 21.3709 7.34553 21.1942C7.11803 21.0809 6.89136 20.7301 6.71386 20.5492C6.16136 19.9842 4.67636 18.9467 4.81303 18.0676C4.9422 17.2401 6.1922 16.3876 6.75386 15.8126C6.9372 15.6251 7.20386 15.2659 7.3497 15.3084C7.83553 15.4484 7.72386 16.4751 7.72386 16.8342C7.72386 16.9042 7.9097 16.9176 7.9347 16.9176C9.74886 16.9176 11.5789 16.8392 13.3905 16.9176C14.7622 16.9767 15.5972 18.2009 16.5097 19.1117L21.4605 24.0584L23.4605 26.0584C23.6805 26.2776 23.9905 26.7409 24.2789 26.8751C24.5286 26.9377 24.7882 26.951 25.043 26.9142H29.5972C29.8105 26.9142 30.593 26.8217 30.593 26.5092C30.593 26.3226 30.5097 25.4934 30.6905 25.3859C30.8572 25.2867 31.013 25.5351 31.1314 25.6484C31.7147 26.1984 32.253 26.7934 32.8122 27.3643C33.3714 27.9351 33.8572 28.4476 33.1689 29.2226C32.8805 29.5467 32.5714 29.8542 32.2614 30.1609C31.7547 30.4454 31.272 30.7706 30.818 31.1334ZM8.58136 29.7126C8.3447 29.7126 7.72886 29.8409 7.72886 30.1617C7.72886 30.3809 7.7472 30.6067 7.72886 30.8242C7.71803 30.9451 7.73553 31.1676 7.62386 31.2526C7.47136 31.3701 7.54053 31.3051 7.34303 31.1692C7.07803 30.9437 6.83423 30.6943 6.6147 30.4242L5.46136 29.2501C5.1447 28.9259 4.7297 28.6151 4.7947 28.1092C4.84803 27.6867 5.25386 27.3859 5.53636 27.0967L6.6947 25.9084C6.84636 25.7534 6.99553 25.5942 7.15053 25.4426C7.17886 25.4142 7.2422 25.3176 7.2847 25.3051C7.42303 25.2634 7.23386 25.3217 7.2847 25.3326C7.86053 25.4642 7.73136 26.4109 7.73136 26.8326C7.73136 26.9617 8.01803 26.9584 8.08553 26.9584H10.7289C11.5861 27.0043 12.4452 27.0017 13.3022 26.9509C14.1539 26.8526 14.8239 25.8576 15.3855 25.2959L16.6914 23.9901C17.2991 24.5956 17.9061 25.202 18.5122 25.8092L16.5955 27.7259L15.2372 29.0842C14.9972 29.3242 14.7522 29.6567 14.4039 29.7209C14.0675 29.7497 13.7294 29.7497 13.393 29.7209H8.58136V29.7126ZM29.6064 16.9109C29.8205 16.9109 30.6022 16.8192 30.6022 16.5051C30.6022 16.2726 30.5839 16.0317 30.6022 15.8009C30.6251 15.6486 30.663 15.499 30.7155 15.3542L30.7364 15.3342C30.7689 15.3451 30.803 15.3559 30.8522 15.3684C31.0947 15.6309 31.3689 15.8759 31.6197 16.1326L32.8647 17.4051C33.198 17.7426 33.5947 18.0409 33.5389 18.5676C33.4922 19.0109 33.0989 19.2976 32.803 19.6001L31.553 20.8767C31.3986 21.0041 31.2588 21.1484 31.1364 21.3067C31.1152 21.338 31.0897 21.3661 31.0605 21.3901C31.0384 21.3692 31.0183 21.3464 31.0005 21.3217C30.7947 21.0376 30.633 20.9192 30.6047 20.5426C30.588 20.3109 30.6047 20.0709 30.6047 19.8384C30.6047 19.7684 30.4197 19.7551 30.3939 19.7551H27.748C26.8847 19.7551 25.9814 19.6767 25.1205 19.7551C24.1947 19.8442 23.5655 20.7892 22.9539 21.3984L21.658 22.6934C21.0391 22.0762 20.4205 21.4581 19.8022 20.8392L21.7247 18.9167L23.083 17.5576C23.2547 17.3909 23.5539 16.9876 23.7905 16.9059C24.1236 16.8588 24.4616 16.8588 24.7947 16.9059H29.6047L29.6064 16.9109ZM31.0655 21.3992C31.2047 21.5301 31.2147 21.3284 31.0655 21.3992V21.3992ZM46.8872 39.2151C46.8904 41.1508 46.308 43.0423 45.2165 44.641C44.125 46.2397 42.5754 47.4708 40.7714 48.1726C38.9093 48.8277 36.8889 48.8836 34.9935 48.3324C33.098 47.7813 31.4226 46.6507 30.2022 45.0993C29.0186 43.5867 28.3068 41.759 28.1557 39.8444C28.0045 37.9297 28.4207 36.013 29.3522 34.3334C30.3099 32.6379 31.7761 31.286 33.5437 30.4689C35.3113 29.6517 37.2909 29.4105 39.203 29.7792C41.364 30.2477 43.3016 31.4367 44.6979 33.1512C46.0941 34.8658 46.8661 37.004 46.8872 39.2151ZM1.4347 4.92591C1.39586 4.43084 1.53723 3.93841 1.83278 3.53934C2.12833 3.14027 2.55814 2.86145 3.04303 2.75425C3.44735 2.72883 3.85287 2.72883 4.2572 2.75425H6.0522V4.21008C6.05817 4.27555 6.07806 4.33899 6.11053 4.39616C6.143 4.45332 6.1873 4.50289 6.24048 4.54155C6.29366 4.58021 6.35447 4.60706 6.41887 4.62032C6.48326 4.63358 6.54974 4.63293 6.61386 4.61841C6.8522 4.59425 7.28053 4.42841 7.28053 4.12341V2.75425H11.0589V4.22175C11.0589 4.50675 11.3572 4.60591 11.6055 4.57675C11.8205 4.55175 12.2772 4.40175 12.2772 4.11175V2.75425H16.0647V4.32841C16.0647 4.42258 16.2372 4.47925 16.298 4.49508C16.4481 4.52131 16.6021 4.51218 16.748 4.46841C16.9722 4.40258 17.2714 4.27758 17.2714 4.00841V2.75841H21.0647V4.32841C21.0647 4.39758 21.2514 4.40508 21.2747 4.40591C21.424 4.40656 21.5725 4.38522 21.7155 4.34258C21.8564 4.30341 22.2714 4.20591 22.2714 4.00508V2.75508H26.0639V4.23925C26.0639 4.50508 26.3747 4.54258 26.5889 4.51258C26.7508 4.4949 26.9068 4.44138 27.0455 4.35591C27.1289 4.30175 27.2722 4.20341 27.2722 4.09425V2.75425H31.0539V4.20425C31.059 4.27169 31.0783 4.33729 31.1106 4.39674C31.1428 4.4562 31.1873 4.50816 31.241 4.54924C31.2948 4.59031 31.3566 4.61956 31.4224 4.63507C31.4882 4.65058 31.5566 4.65201 31.623 4.63925C31.873 4.61591 32.2822 4.44175 32.2822 4.12925V2.75425H32.3239C33.3239 2.75425 34.7922 2.52675 35.6947 3.05008C37.2072 3.92508 36.898 5.83841 36.898 7.31341V8.01425H1.3797C1.3822 6.98341 1.39553 5.95341 1.4347 4.92591Z"></path>
                                            <path d="M38.0867 37.2293C37.9561 37.2767 37.8438 37.3642 37.7659 37.4793L36.9326 39.146C36.9043 39.185 36.8896 39.2322 36.8907 39.2803C36.8917 39.3284 36.9085 39.3749 36.9384 39.4127L37.7717 40.246C37.8901 40.324 38.0277 40.3679 38.1694 40.3729C38.3111 40.3779 38.4515 40.3438 38.5751 40.2743C38.7217 40.2052 39.0926 39.9635 38.8901 39.761L38.1492 39.021C38.3987 38.521 38.6487 38.0232 38.8992 37.5277C38.9272 37.4885 38.9418 37.4414 38.9407 37.3933C38.9397 37.3453 38.9231 37.2988 38.8934 37.261C38.8015 37.1802 38.6824 37.1374 38.5601 37.141C38.3977 37.1346 38.2359 37.1647 38.0867 37.2293Z"></path>
                                          </svg>
                                          