<svg xmlns="http://www.w3.org/2000/svg" width="50" height="50" viewBox="0 0 50 50">
                                            <g>
                                              <path d="M38.9283 43.8664C38.8559 43.8031 38.7718 43.7547 38.6806 43.7239C38.5895 43.6931 38.4932 43.6805 38.3972 43.687C38.3013 43.6934 38.2075 43.7187 38.1213 43.7613C38.0351 43.804 37.9581 43.8632 37.8948 43.9356L34.8752 47.3892C34.5554 47.7553 34.1114 47.9659 33.6253 47.9823C33.1378 47.9997 32.6819 47.8187 32.3381 47.4752L30.0109 45.1489V43.6105C30.0109 43.2061 29.683 42.8781 29.2784 42.8781C28.8738 42.8781 28.546 43.2061 28.546 43.6105V49.2676C28.546 49.6721 28.8738 50 29.2784 50C29.683 50 30.0109 49.6721 30.0109 49.2676V47.2201L31.3026 48.5113C31.9021 49.1102 32.7223 49.4481 33.5676 49.4481C34.4861 49.4481 35.3739 49.0451 35.9781 48.3532L38.9977 44.8999C39.061 44.8275 39.1094 44.7433 39.1402 44.6522C39.171 44.5611 39.1835 44.4648 39.1771 44.3688C39.1706 44.2728 39.1453 44.1791 39.1027 44.0929C39.06 44.0067 39.0007 43.9297 38.9283 43.8664ZM8.51056 42.8781C8.3163 42.8781 8.13001 42.9553 7.99265 43.0926C7.8553 43.23 7.77813 43.4163 7.77813 43.6105V49.2676C7.77813 49.6721 8.10597 50 8.51056 50C8.91514 50 9.24298 49.6721 9.24298 49.2676V43.6105C9.24298 43.4163 9.16581 43.23 9.02846 43.0926C8.8911 42.9553 8.70481 42.8781 8.51056 42.8781ZM49.0734 11.6115L44.1641 7.62266C43.8245 7.34688 43.3684 7.29219 42.9733 7.48027C42.5782 7.66826 42.3328 8.05684 42.3328 8.49434V17.9085C42.3328 17.9099 42.3331 17.9111 42.3331 17.9125V29.792L34.9585 38.2027L32.6223 33.8409C31.5072 31.7576 29.4491 30.2853 27.1165 29.9022C26.1546 29.7443 23.9094 29.3772 23.1003 29.2441C22.8086 29.1971 22.5432 29.0476 22.3518 28.8224C22.1605 28.5972 22.0558 28.3111 22.0566 28.0156V27.1501C22.6341 26.7866 23.1691 26.3596 23.6518 25.8771C25.3689 24.159 26.3145 21.8755 26.3145 19.4473V19.1289H26.5967C28.0458 19.1355 29.2783 17.9032 29.2783 16.4473C29.2783 15.6748 28.9391 14.9568 28.3889 14.458C28.8147 13.8507 28.9354 13.0526 28.6931 12.352C28.5888 12.0519 28.4242 11.7764 28.2093 11.5425C27.9944 11.3085 27.7339 11.1211 27.4438 10.9918C27.3669 10.9576 27.2893 10.9248 27.2119 10.8914V5.61914C27.2119 2.5208 24.6911 0 21.5928 0H12.8535C9.75518 0 7.23438 2.5208 7.23438 5.61914V10.8914C7.15723 10.9248 7.07989 10.9576 7.00304 10.9917C6.71287 11.121 6.4523 11.3085 6.23741 11.5425C6.02252 11.7764 5.85787 12.052 5.75362 12.3521C5.50821 13.0618 5.62872 13.8476 6.05645 14.4589C5.50675 14.9573 5.16798 15.6748 5.16798 16.4473C5.16798 17.8993 6.38634 19.1372 7.85059 19.1289H8.13282V19.4473C8.13282 22.6862 9.83477 25.5346 12.3907 27.1459V28.165C12.391 28.438 12.2997 28.7032 12.1314 28.9181C11.9631 29.133 11.7275 29.2852 11.4624 29.3504L5.38038 30.8504C3.94855 31.2011 2.67603 32.0227 1.76695 33.1831C0.857874 34.3436 0.364929 35.7758 0.367195 37.25V49.2676C0.367195 49.6721 0.695027 50 1.09962 50C1.50421 50 1.83204 49.6721 1.83204 49.2676V37.25C1.83027 36.1035 2.21366 34.9896 2.9207 34.087C3.62774 33.1844 4.61745 32.5455 5.73106 32.2727L10.4422 31.1108C11.8987 33.4467 14.4469 34.8754 17.2233 34.8754C20.1042 34.8754 22.7048 33.3647 24.1349 30.898L26.8794 31.3478C28.7652 31.6574 30.4293 32.8479 31.3309 34.5323L33.6948 38.9458C33.8033 39.1487 33.9594 39.3223 34.1497 39.4516C34.34 39.581 34.5588 39.6622 34.7874 39.6885C35.0163 39.7148 35.2481 39.6852 35.463 39.6022C35.6779 39.5193 35.8695 39.3855 36.0214 39.2123L41.0375 33.4914L44.2236 36.6787C44.2267 36.6816 44.2299 36.6842 44.2329 36.6871L40.1485 41.3583C40.0234 41.5049 39.9611 41.695 39.9752 41.8872C39.9892 42.0794 40.0785 42.2584 40.2236 42.3853C40.3687 42.5122 40.558 42.5767 40.7504 42.565C40.9428 42.5532 41.1228 42.4661 41.2514 42.3226L47.9831 34.6237C49.361 33.0608 49.1193 30.5614 47.5061 29.2718C46.4223 28.4054 45.003 28.2402 43.7979 28.726V18.2568L49.0734 13.9705C49.2491 13.8283 49.3907 13.6485 49.4878 13.4444C49.585 13.2403 49.6352 13.017 49.6348 12.7909C49.6348 12.3313 49.4301 11.9014 49.0734 11.6115ZM27.8135 16.4473C27.8135 17.1074 27.2573 17.6674 26.5967 17.6641H26.3145V15.4414C26.5902 15.4611 26.8672 15.4316 27.1325 15.3543C27.5417 15.5562 27.8135 15.9802 27.8135 16.4473ZM8.13282 17.6641H7.85059C7.18614 17.6675 6.63282 17.1083 6.63282 16.4473C6.63282 15.9806 6.90391 15.5573 7.31202 15.3558C7.57826 15.4332 7.85614 15.4628 8.13272 15.4432L8.13282 17.6641ZM8.31417 13.9111C7.89454 14.0972 7.4085 13.9151 7.19014 13.5082C6.96007 13.0795 7.15304 12.5279 7.59737 12.3307C11.6211 10.5441 16.0627 9.91286 20.4249 10.5077C20.825 10.5617 21.1948 10.2815 21.2493 9.88076C21.2623 9.78545 21.2564 9.68852 21.2319 9.5955C21.2074 9.50248 21.1648 9.41519 21.1066 9.33863C21.0483 9.26206 20.9756 9.19772 20.8925 9.14927C20.8094 9.10082 20.7176 9.06921 20.6223 9.05625C16.6048 8.50868 12.5144 8.93945 8.69913 10.3119V5.61914C8.69913 3.32842 10.5627 1.46484 12.8534 1.46484H21.5928C23.8835 1.46484 25.7471 3.32842 25.7471 5.61914V10.3116C25.1874 10.1103 24.6208 9.92881 24.0483 9.76758C23.8617 9.71622 23.6623 9.7408 23.4938 9.83594C23.3253 9.93108 23.2013 10.0891 23.1488 10.2753C23.0964 10.4616 23.1199 10.6611 23.214 10.8302C23.3082 10.9992 23.4655 11.1242 23.6515 11.1776C24.7435 11.4853 25.8122 11.8706 26.8493 12.3306C27.29 12.5262 27.4841 13.0782 27.2581 13.5052C27.0437 13.9103 26.5623 14.1015 26.1324 13.911C20.6668 11.4907 13.8525 11.4557 8.31417 13.9111ZM9.59766 19.4473V14.9614C14.4846 13.0069 19.9631 13.007 24.8497 14.9617V19.4473C24.8497 21.4844 24.0564 23.4002 22.6158 24.8416C21.187 26.2714 19.2621 27.0761 17.2237 27.0761C13.0187 27.0762 9.59766 23.6538 9.59766 19.4473ZM17.2233 33.4105C15.1177 33.4105 13.173 32.4036 11.953 30.7317C13.1472 30.3608 13.9753 29.1664 13.8555 27.8937C14.9266 28.3224 16.0699 28.5421 17.2236 28.541C18.3964 28.541 19.5343 28.3185 20.5917 27.8968C20.5167 29.1586 21.3861 30.2982 22.5729 30.6251C21.3618 32.3639 19.3898 33.4105 17.2233 33.4105ZM46.5911 30.4155C47.5727 31.2001 47.7175 32.7117 46.8803 33.6595L45.199 35.5822L42.0055 32.3876L43.4933 30.6908C43.8745 30.2543 44.4096 29.9819 44.9869 29.9306C45.5642 29.8793 46.1389 30.0531 46.5911 30.4155ZM48.1496 12.8336L43.7979 16.3694L43.7976 9.2124L48.1495 12.7484C48.1717 12.7622 48.1723 12.8193 48.1496 12.8336ZM21.2561 18.8925C21.4503 18.8925 21.6366 18.8153 21.774 18.678C21.9113 18.5406 21.9885 18.3543 21.9885 18.1601V16.5464C21.9885 16.1419 21.6607 15.814 21.2561 15.814C20.8515 15.814 20.5236 16.1419 20.5236 16.5464V18.1601C20.5236 18.3543 20.6008 18.5406 20.7382 18.678C20.8755 18.8153 21.0618 18.8925 21.2561 18.8925ZM13.1906 15.8141C12.9964 15.8141 12.8101 15.8912 12.6727 16.0286C12.5354 16.1659 12.4582 16.3522 12.4582 16.5465V18.1602C12.4582 18.5646 12.786 18.8926 13.1906 18.8926C13.5952 18.8926 13.9231 18.5646 13.9231 18.1602V16.5465C13.9231 16.3522 13.8459 16.1659 13.7085 16.0286C13.5712 15.8912 13.3849 15.8141 13.1906 15.8141ZM19.4785 22.5349C19.3851 22.3646 19.2278 22.2384 19.0413 22.184C18.8548 22.1297 18.6544 22.1516 18.4841 22.245C18.0892 22.4606 17.6458 22.572 17.1959 22.5686C16.7645 22.5635 16.341 22.4524 15.9626 22.245C15.7925 22.154 15.5934 22.1338 15.4085 22.1888C15.2235 22.2437 15.0678 22.3694 14.975 22.5385C14.8821 22.7077 14.8598 22.9066 14.9128 23.0921C14.9657 23.2776 15.0897 23.4347 15.2578 23.5293C15.668 23.7544 16.3345 24.0245 17.1806 24.0334C18.0354 24.0423 18.7661 23.7611 19.1887 23.5294C19.359 23.4359 19.4852 23.2787 19.5396 23.0922C19.5939 22.9056 19.572 22.7052 19.4785 22.5349Z"></path>
                                            </g>
                                          </svg>